
<svg  viewBox="0 0 367 297" fill="none" xmlns="http://www.w3.org/2000/svg">
<g clip-path="url(#clip0_14452_1478)">
<path d="M292.986 54.0993C291.079 75.0585 285.648 97.1587 277.13 118.483C266.596 144.852 252.205 168.079 235.51 185.651L234.584 184.845C251.197 167.357 265.524 144.233 276.013 117.973C285.493 94.2414 291.132 69.5454 292.327 46.5655L293.511 46.7632C293.385 49.1902 293.21 51.6356 292.986 54.0993Z" fill="#F2F2F2"/>
<path d="M300.579 175.826C277.131 213.048 248.683 239.643 220.476 250.712L219.905 249.668C247.917 238.676 276.198 212.217 299.539 175.165L300.579 175.826Z" fill="#F2F2F2"/>
<path d="M292.416 80.1943C290.51 101.153 285.079 123.254 276.561 144.578C266.027 170.947 251.635 194.174 234.941 211.746L234.015 210.94C250.628 193.452 264.954 170.328 275.444 144.068C284.924 120.336 290.563 95.6404 291.758 72.6605L292.942 72.8582C292.816 75.2852 292.641 77.7306 292.416 80.1943Z" fill="#F2F2F2"/>
<path d="M29.1824 134.003H13.7976C13.4689 134.003 13.1443 133.93 12.8482 133.788C12.5521 133.645 12.2921 133.438 12.0877 133.181C11.8859 132.931 11.7434 132.638 11.6712 132.325C11.5989 132.012 11.5986 131.686 11.6704 131.373C13.1356 124.922 13.0436 118.216 11.4018 111.807C11.298 111.386 11.3231 110.942 11.4739 110.535C11.6247 110.127 11.8944 109.774 12.2481 109.52C20.159 103.843 26.389 104.008 30.7654 110.011C30.9627 110.285 31.0937 110.6 31.1483 110.933C32.3176 117.947 32.3823 125.1 31.3401 132.134C31.2676 132.653 31.0091 133.129 30.6124 133.472C30.2157 133.816 29.7077 134.004 29.1824 134.003Z" fill="#E6E6E6"/>
<path d="M24.4124 118.63H19.1201C18.8274 118.63 18.5467 118.514 18.3398 118.308C18.1328 118.101 18.0166 117.821 18.0166 117.529C18.0166 117.237 18.1328 116.957 18.3398 116.751C18.5467 116.544 18.8274 116.428 19.1201 116.428H24.4124C24.7047 116.429 24.9848 116.545 25.1912 116.752C25.3977 116.958 25.5136 117.238 25.5136 117.529C25.5136 117.821 25.3977 118.101 25.1912 118.307C24.9848 118.513 24.7047 118.63 24.4124 118.63Z" fill="#F2F2F2"/>
<path d="M24.4124 122.492H19.1201C18.8274 122.492 18.5467 122.376 18.3398 122.169C18.1328 121.963 18.0166 121.683 18.0166 121.391C18.0166 121.099 18.1328 120.819 18.3398 120.612C18.5467 120.406 18.8274 120.29 19.1201 120.29H24.4124C24.7047 120.29 24.9848 120.406 25.1912 120.613C25.3977 120.819 25.5136 121.099 25.5136 121.391C25.5136 121.682 25.3977 121.962 25.1912 122.168C24.9848 122.375 24.7047 122.491 24.4124 122.492Z" fill="#F2F2F2"/>
<path d="M24.4124 126.353H19.1201C18.8274 126.353 18.5467 126.237 18.3398 126.031C18.1328 125.824 18.0166 125.544 18.0166 125.252C18.0166 124.96 18.1328 124.68 18.3398 124.473C18.5467 124.267 18.8274 124.151 19.1201 124.151H24.4124C24.7047 124.152 24.9848 124.268 25.1912 124.474C25.3977 124.681 25.5136 124.96 25.5136 125.252C25.5136 125.544 25.3977 125.823 25.1912 126.03C24.9848 126.236 24.7047 126.352 24.4124 126.353Z" fill="#F2F2F2"/>
<path d="M308.784 202.542H293.399C293.07 202.543 292.746 202.469 292.45 202.327C292.154 202.185 291.894 201.977 291.689 201.72C291.487 201.47 291.345 201.177 291.273 200.864C291.2 200.551 291.2 200.226 291.272 199.912C292.737 193.461 292.645 186.755 291.003 180.347C290.9 179.925 290.925 179.481 291.075 179.074C291.226 178.666 291.496 178.313 291.85 178.06C299.761 172.383 305.991 172.547 310.367 178.55C310.564 178.824 310.695 179.139 310.75 179.472C311.919 186.486 311.984 193.639 310.942 200.673C310.869 201.193 310.611 201.668 310.214 202.011C309.817 202.355 309.309 202.544 308.784 202.542Z" fill="#E6E6E6"/>
<path d="M304.015 187.17H298.722C298.43 187.169 298.15 187.053 297.943 186.846C297.737 186.64 297.621 186.36 297.621 186.069C297.621 185.777 297.737 185.497 297.943 185.291C298.15 185.084 298.43 184.968 298.722 184.968H304.015C304.307 184.968 304.588 185.084 304.795 185.29C305.002 185.497 305.118 185.777 305.118 186.069C305.118 186.361 305.002 186.641 304.795 186.847C304.588 187.054 304.307 187.17 304.015 187.17Z" fill="#F2F2F2"/>
<path d="M304.015 191.031H298.722C298.43 191.03 298.15 190.914 297.943 190.708C297.737 190.501 297.621 190.222 297.621 189.93C297.621 189.638 297.737 189.359 297.943 189.152C298.15 188.946 298.43 188.83 298.722 188.829H304.015C304.307 188.829 304.588 188.945 304.795 189.151C305.002 189.358 305.118 189.638 305.118 189.93C305.118 190.222 305.002 190.502 304.795 190.708C304.588 190.915 304.307 191.031 304.015 191.031Z" fill="#F2F2F2"/>
<path d="M304.015 194.892H298.722C298.43 194.892 298.15 194.775 297.943 194.569C297.737 194.363 297.621 194.083 297.621 193.791C297.621 193.5 297.737 193.22 297.943 193.013C298.15 192.807 298.43 192.691 298.722 192.69H304.015C304.307 192.69 304.588 192.806 304.795 193.013C305.002 193.219 305.118 193.499 305.118 193.791C305.118 194.083 305.002 194.363 304.795 194.57C304.588 194.776 304.307 194.892 304.015 194.892Z" fill="#F2F2F2"/>
<path d="M367 296.426C367 296.501 366.985 296.576 366.957 296.646C366.928 296.716 366.885 296.779 366.832 296.832C366.778 296.886 366.715 296.928 366.645 296.957C366.575 296.986 366.5 297 366.424 297H0.575653C0.422981 297 0.276567 296.94 0.168611 296.832C0.0606555 296.724 0 296.578 0 296.426C0 296.273 0.0606555 296.127 0.168611 296.02C0.276567 295.912 0.422981 295.851 0.575653 295.851H366.424C366.5 295.851 366.575 295.866 366.645 295.895C366.715 295.923 366.778 295.966 366.832 296.019C366.885 296.072 366.928 296.136 366.957 296.206C366.985 296.275 367 296.35 367 296.426Z" fill="#CCCCCC"/>
<path d="M96.508 261.258L95.5485 247.942C89.263 244.807 82.3056 243.25 75.2803 243.407C85.1639 251.03 84.3723 266.265 91.2172 276.692C93.377 279.927 96.2389 282.637 99.5908 284.619C102.943 286.601 106.699 287.805 110.58 288.141L118.806 292.863C119.747 286.658 119.328 280.323 117.579 274.294C115.83 268.266 112.792 262.688 108.674 257.944C106.338 255.305 103.677 252.971 100.756 250.996C98.9584 256.146 96.508 261.258 96.508 261.258Z" fill="#F2F2F2"/>
<path d="M270.492 263.189L271.451 249.873C277.737 246.738 284.694 245.181 291.719 245.338C281.836 252.96 282.627 268.196 275.782 278.622C273.623 281.858 270.761 284.567 267.409 286.549C264.057 288.531 260.301 289.735 256.419 290.072L248.194 294.794C247.253 288.589 247.671 282.254 249.42 276.225C251.169 270.197 254.208 264.618 258.325 259.874C260.662 257.236 263.322 254.902 266.243 252.926C268.041 258.077 270.492 263.189 270.492 263.189Z" fill="#F2F2F2"/>
<path d="M179.146 112.917C184.222 112.917 188.337 108.811 188.337 103.746C188.337 98.6815 184.222 94.5756 179.146 94.5756C174.07 94.5756 169.955 98.6815 169.955 103.746C169.955 108.811 174.07 112.917 179.146 112.917Z" fill="#F07D0B"/>
<path d="M183.865 99.9243C183.726 99.7927 183.543 99.7193 183.352 99.7193C183.161 99.7193 182.977 99.7927 182.839 99.9243C180.888 101.476 179.137 103.262 177.623 105.24C177.251 104.522 176.88 103.805 176.508 103.088C176.079 102.259 174.826 102.991 175.255 103.818C175.799 104.868 176.342 105.917 176.886 106.967C176.951 107.074 177.043 107.162 177.153 107.224C177.263 107.285 177.386 107.317 177.512 107.317C177.638 107.317 177.762 107.285 177.871 107.224C177.981 107.162 178.073 107.074 178.139 106.967C179.752 104.7 181.68 102.673 183.865 100.948C184 100.812 184.075 100.628 184.075 100.436C184.075 100.245 184 100.061 183.865 99.9243Z" fill="#F2F2F2"/>
<path d="M138.021 129.751L124.161 108.033L140.211 99.4569L144.423 116.027L174.103 132.03C175.275 131.609 176.544 131.537 177.756 131.824C178.968 132.11 180.07 132.743 180.928 133.643C181.786 134.544 182.363 135.674 182.588 136.896C182.813 138.118 182.677 139.379 182.197 140.526C181.716 141.672 180.911 142.654 179.881 143.352C178.851 144.05 177.639 144.434 176.394 144.457C175.149 144.48 173.924 144.14 172.869 143.481C171.813 142.821 170.973 141.869 170.451 140.741L138.021 129.751Z" fill="#A0616A"/>
<path d="M114.035 81.9845C109.68 88.3643 125.156 111.554 125.156 111.554C125.91 109.933 133.117 128.142 134.324 127.066C137.755 124.009 143.126 115.493 146.111 115.114C147.818 114.897 142.152 102.816 142.152 102.816C142.152 102.816 139.562 95.6825 136.048 86.57C135.102 83.9754 133.514 81.6616 131.431 79.8442C129.348 78.0267 126.838 76.7647 124.135 76.1754C124.135 76.1754 118.39 75.6047 114.035 81.9845Z" fill="#3F3D56"/>
<path d="M114.248 289.839L120.83 289.839L123.961 264.506L114.246 264.506L114.248 289.839Z" fill="#A0616A"/>
<path d="M112.568 287.695L114.421 287.695L121.655 284.76L125.531 287.694H125.532C127.723 287.695 129.824 288.563 131.373 290.109C132.922 291.655 133.793 293.751 133.793 295.937V296.205L112.569 296.206L112.568 287.695Z" fill="#2F2E41"/>
<path d="M144.828 289.839L151.41 289.839L154.542 264.506L144.827 264.506L144.828 289.839Z" fill="#A0616A"/>
<path d="M143.148 287.695L145.001 287.695L152.235 284.76L156.112 287.694H156.112C158.303 287.695 160.404 288.563 161.953 290.109C163.503 291.655 164.373 293.751 164.373 295.937V296.205L143.149 296.206L143.148 287.695Z" fill="#2F2E41"/>
<path d="M147.677 151.342L104.862 152.41C96.7309 156.817 96.6075 166.355 99.2717 177.679C99.2717 177.679 98.3723 184.41 100.171 186.205C101.97 188 102.869 188 101.97 191.141C101.071 194.282 105.823 199.412 105.245 199.988C104.668 200.564 103.319 203.705 103.319 203.705L107.816 229.282C107.816 229.282 110.964 273.705 111.864 274.602C112.763 275.5 113.663 274.602 112.763 276.846C111.864 279.089 110.964 278.192 111.864 279.089C112.66 279.946 113.411 280.845 114.112 281.782H124.985C124.985 281.782 125.805 277.295 125.805 276.846C125.805 276.397 126.704 273.705 126.704 273.256C126.704 272.807 125.909 272.014 125.909 272.014C125.635 271.102 125.449 270.165 125.355 269.218C125.355 268.32 122.657 233.769 122.657 233.769L128.053 188.897L141.095 232.871C141.095 232.871 141.095 271.461 141.994 272.359C142.894 273.256 142.894 272.807 142.444 274.602C141.994 276.397 140.196 275.948 141.545 277.295C142.894 278.641 143.344 276.397 142.894 278.641L142.444 280.884L155.936 281.077C155.936 281.077 157.734 277.295 156.835 275.948C155.936 274.602 155.99 274.97 157.087 272.767C158.184 270.564 158.634 270.115 158.184 269.666C157.734 269.218 157.734 266.831 157.734 266.831L155.486 223.897C155.486 223.897 155.036 178.577 155.036 177.231C155.002 176.538 155.13 175.847 155.41 175.212V173.385L153.687 166.91L147.677 151.342Z" fill="#2F2E41"/>
<path d="M121.958 62.513C129.305 62.513 135.261 56.5704 135.261 49.2397C135.261 41.9091 129.305 35.9664 121.958 35.9664C114.611 35.9664 108.655 41.9091 108.655 49.2397C108.655 56.5704 114.611 62.513 121.958 62.513Z" fill="#A0616A"/>
<path d="M128.609 71.2858C131.474 72.9858 133.189 76.1094 134.173 79.2879C135.995 85.1724 137.092 91.2566 137.439 97.4058L138.478 115.816L151.352 155.015C140.195 164.435 98.2567 157.156 98.2567 157.156C98.2567 157.156 96.9694 156.728 98.2567 155.443C99.5441 154.159 100.797 155.297 99.51 154.012C98.2227 152.728 99.1101 154.159 99.5393 152.874C99.9684 151.59 99.5393 152.446 99.1101 152.018C98.681 151.59 102.432 147.736 102.432 147.736L98.9992 125.235L94.708 79.8492C99.8575 73.4266 110.214 69.6406 110.214 69.6406L112.89 64.8346L126.269 65.9026L128.609 71.2858Z" fill="#3F3D56"/>
<path d="M132.924 42.1878C133.958 42.9573 134.724 44.0309 135.114 45.2576C135.264 43.253 135.274 41.2404 135.143 39.2344C134.986 37.8249 133.991 37.5078 132.84 37.1404C131.8 36.8085 130.624 36.4336 130.307 35.0652C126.125 31.0062 118.846 31.2109 113.864 32.6267C111.123 33.4058 109.546 34.4068 109.405 34.9932L109.375 35.1139L109.264 35.1695C107.151 36.2237 106.74 39.5525 106.767 42.1594C106.818 47.071 108.518 52.6493 109.475 53.1025C109.526 53.1265 109.539 53.1171 109.561 53.0988C111.003 51.9492 112.762 53.1862 113.535 53.8586C113.99 50.806 115.458 47.9939 117.704 45.8714C119.95 43.7488 122.843 42.4384 125.923 42.1493C126.929 42.0523 127.926 41.8854 128.909 41.6497C129.407 41.5211 129.919 41.454 130.434 41.45C131.32 41.4366 132.189 41.6941 132.924 42.1878Z" fill="#2F2E41"/>
<path d="M215.506 161.919L241.095 135.99L247.837 115.253L236.988 110.875C231.614 116.284 226.081 132.843 226.081 132.843L208.615 156.233C208.476 156.285 208.337 156.339 208.2 156.404C207.396 156.783 206.703 157.362 206.189 158.086C205.675 158.81 205.357 159.654 205.265 160.537C205.173 161.419 205.311 162.31 205.666 163.124C206.02 163.938 206.579 164.647 207.288 165.182C207.997 165.717 208.833 166.061 209.714 166.18C210.595 166.299 211.492 166.189 212.319 165.861C213.145 165.533 213.872 164.998 214.431 164.307C214.989 163.616 215.359 162.794 215.506 161.919Z" fill="#FFB8B8"/>
<path d="M234.028 113.247L247.749 117.207L247.8 117.197C252.843 116.22 256.833 107.858 259.291 101.014C260.1 98.757 260.02 96.2775 259.066 94.0772C258.113 91.8768 256.358 90.1197 254.156 89.1609C252.527 88.4646 250.735 88.2369 248.983 88.5035C247.231 88.77 245.589 89.5203 244.242 90.6694L237.401 96.547L234.028 113.247Z" fill="#F07D0B"/>
<path d="M222.289 289.069L214.91 289.069L211.4 260.671L222.29 260.671L222.289 289.069Z" fill="#FFB8B8"/>
<path d="M224.172 286.665L222.095 286.665L213.986 283.375L209.64 286.665H209.64C207.184 286.665 204.828 287.638 203.091 289.371C201.355 291.104 200.379 293.454 200.379 295.905V296.205L224.171 296.206L224.172 286.665Z" fill="#2F2E41"/>
<path d="M255.031 289.069L247.652 289.069L244.142 260.671L255.032 260.671L255.031 289.069Z" fill="#FFB8B8"/>
<path d="M256.913 286.665L254.836 286.665L246.727 283.375L242.381 286.665H242.381C239.925 286.665 237.569 287.638 235.833 289.371C234.096 291.104 233.12 293.454 233.12 295.905V296.205L256.912 296.206L256.913 286.665Z" fill="#2F2E41"/>
<path d="M266.282 166.748C266.282 166.748 267.143 177.064 264.989 186.951C262.835 196.838 262.835 224.681 262.835 224.681L258.096 278.939L243.88 277.65L240.003 186.951L226.217 217.47L227.509 221.769L225.788 222.844C225.788 222.844 227.078 231.226 226.217 231.226C225.355 231.226 223.201 232.515 223.201 232.515L224.924 276.79L210.277 276.36L205.107 214.032L210.708 178.354L211.139 171.476L213.077 171.556L214.064 168.682L215.878 163.739L266.282 166.748Z" fill="#2F2E41"/>
<path d="M267.027 168.915L267.103 168.807C271.204 163.079 265.037 149.314 264.107 147.319L268.024 146.05L267.142 138.568L266.724 135.232L269.719 132.244L269.727 132.169L271.45 117.125L273.956 107.132C274.9 103.354 274.819 99.3942 273.723 95.658C272.626 91.9217 270.552 88.5439 267.715 85.8714L261.924 80.4229L254.885 70.0316H243.535L239.643 77.3663C235.87 78.2364 232.522 80.3997 230.184 83.4793C227.845 86.5589 226.662 90.3597 226.843 94.2195L227.725 113.456L224.272 137.408L224.27 141.743L220.384 146.052L221.233 150.285L218.276 151.549L216.97 157.629C216.429 158.341 212.862 163.087 212.862 164.384C212.862 164.579 213.006 164.767 213.316 164.976C215.746 166.618 229.182 169.967 235.129 167.592C241.463 165.065 266.642 168.856 266.896 168.895L267.027 168.915Z" fill="#F07D0B"/>
<path d="M247.744 66.6771C256.046 66.6771 262.776 59.9619 262.776 51.6784C262.776 43.3948 256.046 36.6796 247.744 36.6796C239.442 36.6796 232.712 43.3948 232.712 51.6784C232.712 59.9619 239.442 66.6771 247.744 66.6771Z" fill="#FFB8B8"/>
<path d="M246.304 66.92C248.632 66.8962 250.953 66.6741 253.243 66.2561C255.511 65.7349 260.513 61.8755 261.876 59.5955C262.889 57.9015 263.497 55.2812 263.829 53.3815C264.276 50.8674 264.19 48.2875 263.575 45.8088C262.96 43.33 261.83 41.0078 260.259 38.9925C259.653 38.1482 258.83 37.4829 257.876 37.0672C257.792 37.0367 257.705 37.0101 257.618 36.9876C256.235 36.6625 254.982 35.9326 254.019 34.8917C253.831 34.6809 253.629 34.4839 253.414 34.3021C252.333 33.4386 251.063 32.8425 249.707 32.5627C247.516 32.0378 244.382 32.6956 240.393 34.5195C238.389 35.4359 236.164 35.1802 234.45 34.8551C234.354 34.8392 234.255 34.8486 234.164 34.8825C234.072 34.9163 233.991 34.9735 233.929 35.0482C233.221 35.7464 232.275 36.1514 231.28 36.1818C230.671 36.2242 230.054 37.0827 229.309 38.2005C229.14 38.4543 228.943 38.7504 228.8 38.9312L228.771 38.5918L228.437 38.9798C227.91 39.5898 227.547 40.3227 227.381 41.1104C227.215 41.8981 227.251 42.7149 227.486 43.4848C227.722 44.2548 228.149 44.9527 228.727 45.5137C229.306 46.0747 230.017 46.4804 230.795 46.6932C231.413 46.8402 232.043 46.9239 232.678 46.943C233.062 46.9676 233.46 46.993 233.842 47.049C235.069 47.2669 236.218 47.7986 237.178 48.5922C238.138 49.3857 238.874 50.4139 239.317 51.5765C239.421 51.8452 239.586 52.0863 239.799 52.2812C240.012 52.4762 240.266 52.6198 240.544 52.7009C240.821 52.7821 241.113 52.7986 241.397 52.7492C241.682 52.6998 241.951 52.5858 242.185 52.416C242.573 52.098 243.032 51.8784 243.524 51.7759C244.016 51.6735 244.525 51.6912 245.008 51.8275C245.429 52.0467 245.761 52.4035 245.949 52.8379C246.176 53.3215 246.542 53.7265 247.001 54.0013C248.566 54.7561 248.764 58.2732 248.285 61.2217C247.824 64.0638 246.82 66.1371 245.844 66.2634C245.092 66.3606 245.007 66.4162 244.956 66.5506L244.911 66.6708L244.998 66.78C245.418 66.9198 245.863 66.9675 246.304 66.92Z" fill="#2F2E41"/>
<path d="M233.832 114.851L226.606 105.665C219.247 107.687 206.187 119.302 206.187 119.302L179.368 130.914C178.473 130.764 177.554 130.852 176.703 131.169C175.853 131.486 175.102 132.021 174.524 132.72C173.947 133.419 173.564 134.257 173.415 135.15C173.266 136.044 173.355 136.961 173.674 137.809C173.992 138.657 174.529 139.406 175.23 139.981C175.932 140.556 176.772 140.937 177.668 141.085C178.563 141.233 179.482 141.143 180.331 140.824C181.181 140.505 181.931 139.968 182.507 139.268L217.64 129.488L233.832 114.851Z" fill="#FFB8B8"/>
<path d="M232.101 116.951L243.501 104.27L244.134 95.2848C244.252 93.5203 243.873 91.7582 243.04 90.1974C242.207 88.6367 240.953 87.3396 239.419 86.4527C237.333 85.2644 234.872 84.9111 232.534 85.464C230.196 86.0169 228.156 87.435 226.827 89.4313C222.798 95.4892 218.464 103.68 220.694 108.297L220.717 108.344L232.101 116.951Z" fill="#F07D0B"/>
<path d="M127.02 164.615L97.3885 149.473C95.2808 148.396 94.5827 145.539 95.8322 143.105L115.152 105.464C116.402 103.03 119.133 101.925 121.241 103.002L150.872 118.144C152.98 119.221 153.678 122.078 152.429 124.513L133.108 162.153C131.859 164.588 129.127 165.692 127.02 164.615Z" fill="#E6E6E6"/>
<path d="M121.958 157.654L101.826 147.366C99.8517 146.357 99.1977 143.682 100.368 141.402L116.419 110.131C117.589 107.851 120.147 106.817 122.121 107.826L146.436 120.251C148.41 121.26 149.064 123.935 147.894 126.215L139.174 143.203C133.962 153.359 130.75 162.147 121.958 157.654Z" fill="#F2F2F2"/>
<path d="M131.912 140.577L114.08 131.465C113.862 131.31 113.707 131.082 113.644 130.822C113.581 130.563 113.613 130.289 113.735 130.051C113.857 129.813 114.061 129.627 114.309 129.527C114.557 129.427 114.833 129.419 115.086 129.505L132.918 138.617C133.136 138.772 133.291 139 133.354 139.26C133.417 139.519 133.385 139.793 133.263 140.03C133.141 140.268 132.937 140.454 132.689 140.555C132.441 140.655 132.165 140.663 131.912 140.577Z" fill="#F07D0B"/>
<path d="M116.161 137.416L112.092 135.337C111.874 135.182 111.719 134.954 111.656 134.694C111.592 134.435 111.625 134.161 111.747 133.923C111.869 133.686 112.072 133.5 112.32 133.399C112.569 133.299 112.845 133.291 113.098 133.377L117.167 135.456C117.385 135.611 117.54 135.839 117.604 136.099C117.667 136.359 117.635 136.632 117.513 136.87C117.391 137.108 117.187 137.294 116.939 137.394C116.691 137.494 116.415 137.502 116.161 137.416Z" fill="#F07D0B"/>
<path d="M121.381 144.972L110.105 139.209C109.887 139.054 109.732 138.826 109.668 138.566C109.605 138.307 109.637 138.033 109.759 137.796C109.881 137.558 110.085 137.372 110.333 137.271C110.581 137.171 110.857 137.163 111.111 137.249L122.387 143.012C122.605 143.167 122.76 143.395 122.824 143.654C122.887 143.914 122.855 144.187 122.733 144.425C122.611 144.663 122.407 144.849 122.159 144.949C121.911 145.05 121.635 145.057 121.381 144.972V144.972Z" fill="#F07D0B"/>
<path d="M138.967 126.829L121.136 117.717C120.918 117.562 120.763 117.334 120.7 117.075C120.636 116.815 120.669 116.542 120.791 116.304C120.913 116.066 121.116 115.88 121.364 115.78C121.613 115.679 121.889 115.671 122.142 115.757L139.973 124.869C140.191 125.024 140.346 125.253 140.41 125.512C140.473 125.772 140.441 126.045 140.319 126.283C140.197 126.521 139.993 126.707 139.745 126.807C139.497 126.907 139.221 126.915 138.967 126.829Z" fill="#F07D0B"/>
<path d="M123.218 123.669L119.149 121.59C118.931 121.435 118.776 121.206 118.712 120.947C118.649 120.687 118.681 120.414 118.803 120.176C118.925 119.938 119.129 119.752 119.377 119.652C119.625 119.552 119.901 119.544 120.155 119.63L124.224 121.709C124.442 121.864 124.597 122.092 124.66 122.352C124.724 122.611 124.692 122.885 124.569 123.123C124.447 123.36 124.244 123.546 123.996 123.647C123.748 123.747 123.472 123.755 123.218 123.669Z" fill="#F07D0B"/>
<path d="M128.438 131.224L117.161 125.462C116.943 125.307 116.789 125.079 116.725 124.819C116.662 124.559 116.694 124.286 116.816 124.048C116.938 123.81 117.142 123.624 117.39 123.524C117.638 123.424 117.914 123.416 118.167 123.502L129.444 129.264C129.662 129.419 129.817 129.647 129.88 129.907C129.944 130.166 129.911 130.44 129.789 130.678C129.667 130.916 129.464 131.102 129.216 131.202C128.967 131.302 128.691 131.31 128.438 131.224L128.438 131.224Z" fill="#F07D0B"/>
<path d="M102.467 131.845L95.7725 106.979L113.661 103.601L112.699 120.668L136.203 144.816C137.447 144.765 138.679 145.077 139.749 145.713C140.819 146.349 141.681 147.282 142.228 148.397C142.776 149.513 142.987 150.764 142.834 151.998C142.682 153.231 142.173 154.393 141.37 155.343C140.567 156.293 139.504 156.989 138.312 157.346C137.119 157.704 135.848 157.708 134.653 157.357C133.458 157.006 132.392 156.316 131.583 155.371C130.775 154.425 130.26 153.266 130.1 152.034L102.467 131.845Z" fill="#A0616A"/>
<path d="M93.9417 79.0995C87.8698 83.8825 95.6632 110.636 95.6632 110.636C96.8698 109.315 98.2719 128.842 99.7468 128.177C103.938 126.288 111.621 119.771 114.583 120.302C116.277 120.606 114.502 107.386 114.502 107.386C114.502 107.386 114.176 99.8056 113.563 90.061C113.44 87.3028 112.621 84.6203 111.18 82.2633C109.739 79.9062 107.724 77.9512 105.323 76.5801C105.323 76.5801 100.014 74.3166 93.9417 79.0995Z" fill="#3F3D56"/>
<path d="M194.974 187.037L178.804 179.418C178.458 179.256 178.154 179.018 177.913 178.722C177.673 178.426 177.503 178.079 177.416 177.708C177.328 177.345 177.324 176.967 177.404 176.602C177.483 176.237 177.645 175.895 177.876 175.601C182.56 169.628 185.776 162.643 187.267 155.207C187.38 154.637 187.687 154.124 188.136 153.755C188.585 153.387 189.149 153.185 189.73 153.184C197.977 153.212 204.14 156.216 208.049 162.113C208.255 162.42 208.391 162.768 208.449 163.132C208.506 163.497 208.483 163.87 208.382 164.225C206.119 172.008 202.675 179.399 198.171 186.141C197.836 186.651 197.328 187.023 196.74 187.187C196.153 187.352 195.525 187.299 194.974 187.037Z" fill="#E6E6E6"/>
<path d="M199.73 176.352L187.367 170.526C187.059 170.381 186.822 170.12 186.707 169.801C186.592 169.481 186.609 169.13 186.755 168.823C186.9 168.516 187.161 168.279 187.482 168.164C187.802 168.05 188.154 168.067 188.462 168.212L200.826 174.037C200.978 174.109 201.115 174.21 201.228 174.334C201.341 174.459 201.428 174.604 201.485 174.762C201.542 174.921 201.567 175.088 201.559 175.256C201.551 175.424 201.51 175.589 201.438 175.741C201.366 175.893 201.265 176.029 201.14 176.142C201.015 176.255 200.869 176.342 200.711 176.399C200.552 176.456 200.384 176.481 200.216 176.473C200.048 176.464 199.883 176.423 199.73 176.352H199.73Z" fill="#F2F2F2"/>
<path d="M201.651 172.293L189.288 166.468C188.98 166.323 188.743 166.062 188.628 165.743C188.513 165.423 188.53 165.071 188.676 164.764C188.821 164.457 189.082 164.221 189.402 164.106C189.723 163.992 190.075 164.009 190.383 164.154L202.746 169.979C203.054 170.124 203.291 170.385 203.406 170.704C203.521 171.024 203.504 171.376 203.359 171.682C203.213 171.989 202.952 172.226 202.632 172.341C202.311 172.455 201.959 172.438 201.651 172.293V172.293Z" fill="#F2F2F2"/>
<path d="M185.131 44.8957L183.98 45.0214C178.849 24.9016 168.903 10.9628 155.216 4.71169C137.817 -3.23462 116.302 2.10147 94.6351 19.7372C72.8579 37.463 53.5793 65.4621 40.3511 98.578L39.2344 98.0681C52.5207 64.8075 71.8982 36.6732 93.7975 18.8489C115.807 0.934432 137.76 -4.44079 155.615 3.71358C169.694 10.1438 179.9 24.3844 185.131 44.8957Z" fill="#F2F2F2"/>
<path d="M58.1609 71.0991C55.1512 77.4253 52.2885 83.9793 49.6523 90.5788C34.4819 128.556 26.7942 167.342 27.4224 202.743L26.2368 202.617C25.6079 167.084 33.3177 128.165 48.5356 90.0689C51.1794 83.4507 54.0503 76.8783 57.0686 70.5342L58.1609 71.0991Z" fill="#F2F2F2"/>
<path d="M57.5916 97.1941C54.5819 103.52 51.7192 110.074 49.0829 116.674C33.9126 154.651 26.2249 193.437 26.8531 228.838L25.6675 228.712C25.0386 193.179 32.7484 154.26 47.9663 116.164C50.6101 109.546 53.4809 102.973 56.4993 96.6292L57.5916 97.1941Z" fill="#F2F2F2"/>
<path d="M25.7246 106.684C27.0353 104.719 26.2595 101.905 23.9919 100.4C21.7243 98.8943 18.8235 99.2675 17.5128 101.233C16.2022 103.199 16.9779 106.013 19.2455 107.518C21.5132 109.023 24.414 108.65 25.7246 106.684Z" fill="#CCCCCC"/>
<path d="M304.815 177.67C306.126 175.705 305.35 172.891 303.083 171.386C300.815 169.88 297.914 170.253 296.604 172.219C295.293 174.185 296.069 176.999 298.336 178.504C300.604 180.009 303.505 179.636 304.815 177.67Z" fill="#CCCCCC"/>
</g>
<defs>
<clipPath id="clip0_14452_1478">
<rect width="367" height="297" fill="white"/>
</clipPath>
</defs>
</svg>
