
<svg  viewBox="0 0 331 238" fill="none" xmlns="http://www.w3.org/2000/svg">
<g clip-path="url(#clip0_14452_1791)">
<path d="M242.849 0.137924H0.103516V155.759H242.849V0.137924Z" fill="#E6E6E6"/>
<path d="M235.908 19.6563H7.04492V146.552H235.908V19.6563Z" fill="white"/>
<path d="M242.746 0H0V10.323H242.746V0Z" fill="#F07D0B"/>
<path d="M7.66448 7.19142C8.72019 7.19142 9.57602 6.33473 9.57602 5.27795C9.57602 4.22117 8.72019 3.36448 7.66448 3.36448C6.60876 3.36448 5.75293 4.22117 5.75293 5.27795C5.75293 6.33473 6.60876 7.19142 7.66448 7.19142Z" fill="white"/>
<path d="M14.9194 7.19142C15.9751 7.19142 16.8309 6.33473 16.8309 5.27795C16.8309 4.22117 15.9751 3.36448 14.9194 3.36448C13.8636 3.36448 13.0078 4.22117 13.0078 5.27795C13.0078 6.33473 13.8636 7.19142 14.9194 7.19142Z" fill="white"/>
<path d="M22.1742 7.19142C23.23 7.19142 24.0858 6.33473 24.0858 5.27795C24.0858 4.22117 23.23 3.36448 22.1742 3.36448C21.1185 3.36448 20.2627 4.22117 20.2627 5.27795C20.2627 6.33473 21.1185 7.19142 22.1742 7.19142Z" fill="white"/>
<path d="M79.9663 30.0939H35.2041V78.7058H79.9663V30.0939Z" fill="#E6E6E6"/>
<path d="M143.857 30.0939H99.0947V78.7058H143.857V30.0939Z" fill="#E6E6E6"/>
<path d="M207.748 30.0939H162.985V78.7058H207.748V30.0939Z" fill="#E6E6E6"/>
<path d="M79.9663 87.5047H35.2041V136.117H79.9663V87.5047Z" fill="#E6E6E6"/>
<path d="M143.857 87.5047H99.0947V136.117H143.857V87.5047Z" fill="#E6E6E6"/>
<path d="M207.748 87.5047H162.985V136.117H207.748V87.5047Z" fill="#E6E6E6"/>
<path d="M109.914 99.9982L118.092 96.7615L119.043 112.945C119.043 112.945 120.755 117.895 120.185 119.799C120.185 119.799 120.565 123.036 119.614 123.226C118.663 123.416 115.999 123.797 115.811 123.607C115.623 123.416 115.621 122.845 115.621 122.845C115.621 122.845 113.719 124.178 113.529 125.701C113.529 125.701 105.54 128.176 105.35 125.891C105.16 123.606 109.344 121.702 109.344 121.702L112.578 116.752L109.914 99.9982Z" fill="white"/>
<path d="M127.223 99.9982L135.401 96.7615L136.352 112.945C136.352 112.945 138.064 117.895 137.493 119.799C137.493 119.799 137.873 123.036 136.922 123.226C135.971 123.416 133.308 123.797 133.12 123.607C132.931 123.416 132.929 122.845 132.929 122.845C132.929 122.845 131.027 124.178 130.837 125.701C130.837 125.701 122.849 128.176 122.659 125.891C122.468 123.606 126.653 121.702 126.653 121.702L129.886 116.752L127.223 99.9982Z" fill="white"/>
<path d="M128.022 37.5043C128.022 37.5043 126.281 42.3752 128.299 44.5718L126.616 50.3581C126.616 50.3581 132.593 68.3064 130.886 70.8135C130.886 70.8135 124.51 74.0042 111.759 69.6737L116.938 49.5603L116.199 41.0705L117.223 37.0818L119.5 36.8557C119.5 36.8557 118.134 41.9837 120.638 42.7815C123.143 43.5794 125.586 36.9838 125.586 36.9838L128.022 37.5043Z" fill="#3F3D56"/>
<path d="M47.5986 68.9471L49.7963 69.8471L60.2852 56.048L63.5815 72.2467L65.7792 71.8469C67.1889 57.8812 68.3395 43.6367 66.9279 36.8994L58.7867 36.5493L55.0908 48.3501L53.2926 56.3495L47.5986 68.9471Z" fill="white"/>
<path d="M180.98 36.7889C180.98 36.7889 177.981 40.9626 178.127 42.6469C178.274 44.3312 180.175 71.7907 180.175 71.7907L184.638 72.0104L183.32 52.2395L184.417 46.8941L187.124 71.7907L192.611 71.9373L187.709 39.645L186.758 36.7893L180.98 36.7889Z" fill="white"/>
<path d="M197.932 104.028C197.135 103.072 195.766 102.555 194.452 102.275C194.49 102.156 190.454 101.321 190.386 101.493L188.864 100.279L184.189 102.709L181.562 100.919L180.342 101.352C180.392 101.137 176.554 101.802 176.554 101.802C175.821 101.829 174.884 101.875 173.836 101.956C170.166 102.238 169.883 111.755 169.883 111.755C171.572 111.063 173.372 110.686 175.197 110.641L176.189 122.023C181.291 121.585 186.643 122.095 192.19 123.342L194.792 114.395L200.849 112.037C200.849 112.037 199.814 106.289 197.932 104.028Z" fill="#3F3D56"/>
<path d="M67.9378 98.6083C67.2815 97.8202 66.1538 97.394 65.0706 97.1637C65.103 97.0649 61.7765 96.3775 61.7197 96.5192L60.4659 95.5197L56.6146 97.5217L54.45 96.0469L53.4447 96.4042C53.4858 96.2267 50.3235 96.7747 50.3235 96.7747C49.721 96.7966 48.9477 96.8343 48.0843 96.901C45.0598 97.1339 44.8271 104.974 44.8271 104.974C46.2187 104.404 47.7025 104.093 49.2056 104.057L50.023 127.014C54.2275 126.653 58.6372 127.074 63.2065 128.101L65.3496 107.15L70.341 105.207C70.341 105.207 69.4886 100.472 67.9378 98.6083Z" fill="white"/>
<path d="M282.176 104.719H303.637V93.224C303.637 90.3752 302.506 87.6431 300.494 85.6287C298.482 83.6144 295.752 82.4827 292.906 82.4827C290.06 82.4827 287.331 83.6144 285.319 85.6287C283.306 87.6431 282.176 90.3752 282.176 93.224V104.719Z" fill="#2F2E41"/>
<path d="M272.596 232.614H267.98L265.784 214.791H272.597L272.596 232.614Z" fill="#FFB6B6"/>
<path d="M273.773 231.106H264.682C263.145 231.106 261.672 231.717 260.586 232.804C259.499 233.892 258.889 235.366 258.889 236.904V237.093H273.773V231.106Z" fill="#2F2E41"/>
<path d="M327.774 226.448L323.755 228.72L313.089 214.281L319.022 210.928L327.774 226.448Z" fill="#FFB6B6"/>
<path d="M328.059 224.555L320.143 229.027C318.805 229.783 317.822 231.041 317.41 232.522C316.998 234.004 317.191 235.589 317.947 236.928L318.039 237.092L331 229.768L328.059 224.555Z" fill="#2F2E41"/>
<path d="M298.273 152.461L298.63 154.244C298.63 154.244 299.698 155.313 299.164 155.848C298.63 156.383 298.808 158.879 298.808 158.879C299.107 163.43 305.048 189.006 306.11 194.001C306.11 194.001 314.303 199.349 320.715 209.868C327.126 220.387 327.303 223.061 327.303 223.061L320.181 226.092L302.372 204.52C302.372 204.52 297.385 201.489 295.604 198.815C293.822 196.141 282.778 168.506 282.778 168.506L276.543 197.388C276.543 197.388 276.899 207.907 275.296 214.682C274.311 218.957 273.715 223.314 273.515 227.697L265.145 226.805C265.145 226.805 265.679 201.489 266.569 198.815C266.569 198.815 262.829 167.971 270.309 155.67L276.338 139.582L282.243 137.307L298.273 152.461Z" fill="#2F2E41"/>
<path d="M293.017 85.2927C281.78 85.4849 281.782 102.218 293.017 102.408C304.254 102.216 304.253 85.483 293.017 85.2927Z" fill="#FFB8B8"/>
<path d="M284.368 93.4064H286.278L286.798 92.1047L286.538 93.4064H296.984L296.645 90.6827L299.185 93.4064H301.717V91.9305C301.718 90.7903 301.495 89.6611 301.059 88.6073C300.624 87.5536 299.986 86.5959 299.181 85.7891C298.376 84.9822 297.42 84.342 296.368 83.9049C295.316 83.4678 294.189 83.2424 293.049 83.2416C291.91 83.2408 290.782 83.4646 289.73 83.9002C288.677 84.3358 287.72 84.9747 286.914 85.7804C286.108 86.5861 285.469 87.5428 285.032 88.596C284.595 89.6491 284.37 90.778 284.369 91.9183V91.9305L284.368 93.4064Z" fill="#2F2E41"/>
<path d="M281.429 107.405L302.664 107.577L298.178 153.15C298.178 153.15 273.344 151.838 273.328 144.25L275.655 137.507L281.429 107.405Z" fill="#3F3D56"/>
<path d="M303.577 157.555C303.251 157.155 303.016 156.688 302.889 156.187C302.763 155.686 302.747 155.164 302.844 154.656C302.941 154.149 303.148 153.669 303.45 153.25C303.752 152.831 304.143 152.484 304.594 152.233L303.671 144.21L308.405 142.459L309.549 153.808C309.918 154.594 309.987 155.488 309.743 156.321C309.498 157.155 308.957 157.87 308.222 158.331C307.487 158.792 306.608 158.968 305.753 158.825C304.897 158.682 304.123 158.23 303.577 157.555Z" fill="#FFB6B6"/>
<path d="M299.872 111.503L302.666 107.594C302.666 107.594 304.578 107.169 306.837 109.807C309.096 112.445 310.414 145.423 310.414 145.423L302.131 147.308L297.236 123.941L299.872 111.503Z" fill="#3F3D56"/>
<path d="M253.066 147.265L253.682 176.564L272.63 186.587L307.137 180.419L307.984 149.964L286.109 142.254L253.066 147.265Z" fill="white"/>
<path d="M272.581 186.903L253.383 176.748L252.758 147.006L286.138 141.943L286.21 141.968L308.293 149.752L307.432 180.674L272.581 186.903ZM253.981 176.379L272.679 186.27L306.841 180.164L307.675 150.176L286.08 142.564L253.374 147.525L253.981 176.379Z" fill="#CACACA"/>
<path d="M272.207 155.209L272.133 155.18L252.954 147.547L253.177 146.984L272.282 154.587L307.942 149.664L308.025 150.264L272.207 155.209Z" fill="#CACACA"/>
<path d="M272.548 154.895L271.942 154.902L272.327 186.591L272.933 186.583L272.548 154.895Z" fill="#CACACA"/>
<path d="M269.784 153.693L262.87 150.887L296.152 145.579L303.065 148.384L269.784 153.693Z" fill="#CACACA"/>
<path d="M253.186 155.765L252.946 156.321L260.965 159.777L261.204 159.22L253.186 155.765Z" fill="#CACACA"/>
<path d="M256.816 165.76L256.577 166.316L264.596 169.772L264.835 169.215L256.816 165.76Z" fill="#F07D0B"/>
<path d="M147.644 187.97L148.26 217.268L167.207 227.291L201.714 221.123L202.561 190.668L180.687 182.958L147.644 187.97Z" fill="white"/>
<path d="M167.158 227.608L147.961 217.452L147.335 187.71L180.716 182.647L180.787 182.672L202.87 190.456L202.009 221.378L167.158 227.608ZM148.558 217.083L167.256 226.975L201.418 220.868L202.252 190.88L180.657 183.269L147.951 188.229L148.558 217.083Z" fill="#CACACA"/>
<path d="M166.784 195.913L166.71 195.884L147.531 188.251L147.755 187.688L166.859 195.291L202.52 190.368L202.602 190.968L166.784 195.913Z" fill="#CACACA"/>
<path d="M167.125 195.599L166.52 195.606L166.905 227.295L167.51 227.287L167.125 195.599Z" fill="#CACACA"/>
<path d="M162.686 193.707L157.447 191.591L190.729 186.283L195.967 188.398L162.686 193.707Z" fill="#CACACA"/>
<path d="M147.763 196.469L147.523 197.025L155.542 200.481L155.781 199.924L147.763 196.469Z" fill="#CACACA"/>
<path d="M151.394 206.464L151.154 207.02L159.173 210.476L159.412 209.919L151.394 206.464Z" fill="#F07D0B"/>
<path d="M180.561 191.986L181.276 225.997L203.271 237.633L243.328 230.473L244.311 195.119L218.918 186.169L180.561 191.986Z" fill="#F07D0B"/>
<path d="M203.214 238L180.929 226.212L180.203 191.685L218.953 185.808L219.035 185.837L244.67 194.873L243.671 230.768L203.214 238ZM181.623 225.783L203.329 237.265L242.985 230.177L243.953 195.366L218.885 186.53L180.918 192.288L181.623 225.783Z" fill="#3F3D56"/>
<path d="M202.78 201.208L202.695 201.174L180.431 192.313L180.69 191.66L202.868 200.486L244.263 194.771L244.359 195.467L202.78 201.208Z" fill="#3F3D56"/>
<path d="M203.175 200.843L202.473 200.851L202.92 237.637L203.622 237.628L203.175 200.843Z" fill="#3F3D56"/>
<path d="M198.379 198.663L191.941 196.191L230.576 190.028L237.014 192.5L198.379 198.663Z" fill="#3F3D56"/>
<path d="M180.7 201.853L180.422 202.499L189.73 206.51L190.008 205.864L180.7 201.853Z" fill="#3F3D56"/>
<path d="M184.915 213.455L184.637 214.101L193.945 218.113L194.223 217.467L184.915 213.455Z" fill="white"/>
<path d="M263.809 152.11C264.276 151.891 264.69 151.571 265.02 151.174C265.351 150.778 265.591 150.313 265.722 149.814C265.854 149.314 265.875 148.792 265.784 148.284C265.692 147.775 265.49 147.293 265.192 146.871L269.493 140.038L265.982 136.41L260.044 146.144C259.37 146.692 258.919 147.469 258.778 148.327C258.638 149.186 258.816 150.066 259.28 150.801C259.744 151.536 260.461 152.076 261.296 152.317C262.131 152.558 263.025 152.485 263.809 152.11V152.11Z" fill="#FFB6B6"/>
<path d="M284.692 109.201L281.611 107.169C281.611 107.169 279.233 107.703 276.705 112.571C274.176 117.44 263.979 139.207 263.979 139.207L268.17 143.466L279.353 126.389L284.692 109.201Z" fill="#3F3D56"/>
</g>
<defs>
<clipPath id="clip0_14452_1791">
<rect width="331" height="238" fill="white"/>
</clipPath>
</defs>
</svg>
