<?xml version="1.0" standalone="no"?>
<!DOCTYPE svg PUBLIC "-//W3C//DTD SVG 20010904//EN"
 "http://www.w3.org/TR/2001/REC-SVG-20010904/DTD/svg10.dtd">
<svg version="1.0" xmlns="http://www.w3.org/2000/svg"
 width="223.000000pt" height="223.000000pt" viewBox="0 0 223.000000 223.000000"
 preserveAspectRatio="xMidYMid meet">

<g transform="translate(0.000000,223.000000) scale(0.100000,-0.100000)"
fill="#4c096a" stroke="none">
<path d="M1050 1871 c-14 -4 -39 -15 -55 -24 -43 -22 -624 -607 -655 -659 -21
-37 -25 -55 -25 -123 0 -65 5 -89 24 -125 15 -28 133 -155 315 -338 247 -249
300 -298 353 -324 56 -28 70 -30 131 -26 70 5 132 29 132 51 0 8 -49 53 -110
101 -132 104 -290 253 -290 272 0 30 37 11 109 -58 124 -119 321 -278 344
-278 20 0 138 126 131 141 -3 8 -52 50 -110 93 -122 94 -304 262 -304 281 0
33 25 21 98 -47 142 -135 335 -288 362 -288 20 0 130 111 130 132 0 18 -241
254 -335 329 -64 50 -81 79 -48 79 27 0 120 -77 275 -227 80 -79 149 -143 153
-143 13 0 135 123 135 136 0 23 -121 167 -244 290 -136 135 -213 184 -293 184
-55 0 -74 -10 -140 -72 -71 -66 -130 -92 -200 -86 -58 5 -98 28 -122 70 -14
25 -13 28 45 85 32 33 75 85 94 117 71 116 111 166 152 187 56 28 173 49 281
49 l92 0 -84 84 c-106 106 -161 138 -250 142 -36 2 -77 0 -91 -5z"/>
<path d="M336 33 c-3 -4 -6 -12 -6 -20 0 -10 22 -13 91 -13 81 0 90 2 87 17
-3 15 -16 18 -85 20 -44 1 -84 -1 -87 -4z"/>
<path d="M2007 34 c-4 -4 -7 -13 -7 -21 0 -10 22 -13 91 -13 81 0 90 2 87 17
-3 15 -16 18 -84 21 -44 1 -83 0 -87 -4z"/>
</g>
</svg>
