<?xml version="1.0" standalone="no"?>
<!DOCTYPE svg PUBLIC "-//W3C//DTD SVG 20010904//EN"
 "http://www.w3.org/TR/2001/REC-SVG-20010904/DTD/svg10.dtd">
<svg version="1.0" xmlns="http://www.w3.org/2000/svg"
 width="3000.000000pt" height="2001.000000pt" viewBox="0 0 3000.000000 2001.000000"
 preserveAspectRatio="xMidYMid meet">

<g transform="translate(0.000000,2001.000000) scale(0.100000,-0.100000)"
fill="#000000" stroke="none">
<path d="M15210 17845 c-246 -41 -466 -134 -661 -279 -80 -60 -2947 -2827
-3086 -2979 -171 -189 -298 -458 -339 -722 -23 -153 -15 -378 19 -525 56 -236
162 -440 323 -623 54 -60 1401 -1369 2889 -2806 299 -289 572 -420 960 -462
259 -27 576 31 812 150 105 52 134 97 112 174 -9 33 -36 56 -245 213 -734 549
-1636 1305 -1845 1547 -50 58 -59 74 -59 107 0 52 52 100 110 100 36 0 47 -8
177 -138 157 -157 385 -359 683 -608 562 -468 1340 -1064 1410 -1079 16 -4 45
-3 62 1 35 7 57 28 466 425 l222 217 0 56 c0 70 9 62 -327 310 -737 547 -1619
1284 -1863 1559 -74 84 -80 119 -26 173 28 28 42 34 75 34 39 0 47 -6 174
-133 284 -284 929 -826 1552 -1304 175 -133 468 -348 542 -397 54 -36 108 -43
150 -19 37 21 581 542 631 604 36 45 42 91 18 137 -18 35 -507 518 -786 777
-535 496 -1008 901 -1251 1068 -103 71 -126 103 -114 155 7 34 38 66 78 81 42
16 88 -8 252 -131 395 -297 1098 -925 1691 -1511 296 -292 312 -304 384 -290
36 6 40 10 501 458 214 208 226 226 196 297 -20 48 -453 570 -741 893 -709
798 -1324 1292 -1801 1449 -300 98 -587 71 -802 -75 -27 -18 -115 -98 -198
-179 -235 -229 -370 -330 -568 -425 -356 -173 -698 -161 -984 33 -129 87 -293
295 -293 370 0 51 13 67 110 132 173 116 341 271 471 435 79 99 163 222 354
520 227 353 357 539 428 609 218 214 649 351 1287 408 91 8 296 13 548 13
l402 -1 -27 27 c-461 449 -834 805 -891 850 -192 154 -441 263 -697 304 -110
18 -379 18 -485 0z"/>
<path d="M11220 7705 l0 -545 -200 0 -200 0 0 -470 0 -470 200 0 200 0 0 -590
c0 -354 4 -629 11 -687 31 -280 140 -510 324 -682 278 -260 739 -384 1364
-368 154 4 233 10 314 26 476 95 819 376 978 801 l28 75 1 -452 0 -453 500 0
499 0 3 858 3 857 27 96 c117 428 423 615 833 509 193 -49 383 -177 444 -298
l27 -54 28 41 c16 23 29 41 30 41 1 0 -4 -39 -11 -87 -21 -131 -11 -458 16
-583 157 -709 701 -1222 1436 -1356 124 -22 458 -26 580 -6 597 98 1081 446
1337 964 51 102 120 300 133 378 4 25 11 52 16 60 5 8 9 -312 9 -732 l0 -748
505 0 505 0 2 715 3 715 415 -715 415 -715 564 0 563 0 -14 23 c-8 12 -232
398 -498 857 -266 459 -484 837 -486 839 -2 2 -22 -12 -46 -30 l-42 -34 34 60
c43 77 972 1638 1072 1803 l20 32 -564 0 -563 -1 -420 -696 c-231 -382 -440
-731 -463 -775 -24 -44 -45 -78 -47 -76 -2 2 9 62 25 133 l29 130 1 1073 0
1072 -511 0 -511 0 6 -1172 c5 -731 3 -1167 -2 -1158 -6 8 -13 35 -17 60 -4
25 -24 98 -45 162 -124 378 -363 687 -707 912 -491 321 -1116 382 -1674 161
-198 -78 -395 -205 -555 -358 l-104 -100 -58 55 c-160 152 -381 271 -620 334
-132 35 -348 44 -474 20 -248 -47 -515 -183 -615 -314 l-33 -44 0 161 0 161
-500 0 -500 0 -2 -1144 -3 -1145 -360 195 c-198 106 -363 194 -366 194 -3 0
-12 -19 -18 -42 -25 -84 -84 -188 -137 -243 -103 -107 -255 -156 -489 -156
-148 0 -248 20 -353 72 -88 43 -191 142 -235 227 -66 125 -67 136 -67 666 l0
476 995 0 995 0 0 470 0 470 -995 0 -995 0 0 545 0 545 -495 0 -495 0 0 -545z
m7373 -1259 c396 -118 656 -473 634 -866 -8 -133 -26 -200 -87 -325 -112 -231
-328 -403 -585 -467 -123 -30 -314 -30 -430 1 -274 73 -500 266 -605 517 -49
118 -62 199 -58 349 4 114 8 142 37 225 100 296 343 513 651 581 125 28 322
21 443 -15z"/>
<path d="M6290 7315 c-846 -103 -1378 -736 -1416 -1685 -10 -230 17 -435 81
-626 85 -254 259 -513 457 -681 252 -214 531 -341 888 -405 104 -18 746 -18
885 0 293 40 497 124 894 367 l113 70 -173 168 c-96 93 -239 231 -319 307
l-145 138 -75 -50 c-161 -107 -356 -186 -525 -213 -492 -80 -1058 171 -1101
488 l-7 47 1170 0 1171 0 6 28 c4 15 10 133 13 262 6 260 -7 413 -52 597 -135
557 -487 948 -1000 1112 -260 84 -575 111 -865 76z m390 -875 c221 -28 382
-90 479 -187 62 -62 101 -143 101 -208 l0 -35 -710 0 -710 0 0 25 c0 64 89
186 189 259 86 64 246 133 341 149 51 9 229 7 310 -3z"/>
<path d="M24195 7139 c-117 -14 -312 -64 -423 -110 -373 -152 -665 -447 -817
-824 -197 -490 -174 -1133 56 -1584 358 -700 1237 -972 2057 -635 45 19 84 34
87 34 3 0 5 -29 5 -65 l0 -65 490 0 490 0 0 1615 0 1615 -496 0 -497 0 7 -69
6 -69 -78 39 c-91 46 -220 84 -352 105 -117 18 -427 26 -535 13z m491 -809
c247 -62 414 -220 459 -435 11 -55 15 -155 15 -461 l0 -391 -67 -64 c-156
-150 -301 -214 -543 -240 -275 -30 -489 34 -655 195 -166 162 -245 358 -245
608 0 245 81 433 259 600 79 74 200 148 295 178 136 44 333 48 482 10z"/>
</g>
</svg>
