<svg width="1091" height="1092" viewBox="0 0 1091 1092" fill="none" xmlns="http://www.w3.org/2000/svg">
<path fill-rule="evenodd" clip-rule="evenodd" d="M683.137 183.665C683.773 184.08 679.723 184.425 674.137 184.432C668.551 184.439 661.28 184.754 657.98 185.132C654.68 185.509 650.63 185.848 648.98 185.884C646.59 185.936 646.285 186.163 647.48 187C648.617 187.796 648.375 187.872 646.48 187.316C645.105 186.913 642.405 186.701 640.48 186.845C638.555 186.989 635.359 187.222 633.378 187.363C631.396 187.503 629.248 187.945 628.603 188.343C627.959 188.741 625.98 188.782 624.206 188.432C622.409 188.079 621.504 188.164 622.163 188.626C622.851 189.108 620.851 189.511 617.373 189.591C614.089 189.667 609.839 190.47 607.93 191.376C606.02 192.282 604.006 192.744 603.454 192.403C602.265 191.668 591.512 193.843 589.774 195.17C589.11 195.677 588.129 195.82 587.593 195.489C587.057 195.157 586.317 195.374 585.948 195.971C585.579 196.567 584.663 196.819 583.911 196.531C583.159 196.242 582.29 196.417 581.98 196.919C581.67 197.421 580.755 197.578 579.948 197.268C579.141 196.959 578.48 197.189 578.48 197.781C578.48 198.373 577.732 198.569 576.816 198.218C575.763 197.814 575.396 197.975 575.817 198.656C576.248 199.353 575.721 199.533 574.325 199.168C572.857 198.784 572.394 198.97 572.876 199.75C573.33 200.485 573.044 200.689 572.078 200.318C570.252 199.617 559.729 203.419 557.058 205.745C556.001 206.666 555.47 206.848 555.879 206.15C556.794 204.586 545.739 209.374 543.264 211.614C542.283 212.502 541.48 212.929 541.48 212.561C541.48 212.194 539.793 212.959 537.73 214.26C535.668 215.562 532.942 216.956 531.673 217.358C530.404 217.761 528.941 219.207 528.422 220.572C527.706 222.455 526.997 222.9 525.479 222.419C523.013 221.636 522.89 222.721 525.23 224.614C526.784 225.871 526.707 225.896 524.541 224.838C522.268 223.728 521.739 224.045 516.793 229.488C513.873 232.701 511.228 236.137 510.915 237.124C510.602 238.111 509.87 238.919 509.29 238.919C508.597 238.919 508.567 239.348 509.202 240.169C509.734 240.857 510.47 242.319 510.838 243.419C511.419 245.158 511.27 245.118 509.697 243.114L507.888 240.809L503.963 246.614C501.805 249.807 498.623 254.219 496.893 256.419C495.163 258.619 493.971 261.044 494.244 261.808C494.526 262.601 494.292 262.921 493.697 262.553C493.059 262.159 492.76 262.87 492.927 264.386C493.076 265.749 492.863 266.656 492.453 266.402C491.343 265.716 489.206 268.667 489.946 269.864C490.326 270.48 489.958 270.656 489.032 270.301C487.941 269.882 487.48 270.313 487.48 271.753C487.48 272.879 487.054 274.064 486.533 274.386C486.012 274.708 484.196 277.031 482.497 279.549C479.884 283.42 479.606 284.381 480.694 285.773C481.842 287.242 481.792 287.272 480.23 286.047C478.718 284.861 478.48 284.895 478.48 286.297C478.48 287.189 478.101 287.919 477.637 287.919C477.174 287.919 475.937 289.607 474.887 291.669C473.838 293.732 472.53 295.75 471.98 296.154C471.43 296.558 471.336 296.895 471.77 296.904C472.205 296.912 471.418 298.152 470.02 299.659C467.654 302.211 467.335 302.851 467.57 304.579C467.619 304.942 466.924 305.651 466.026 306.153C464.983 306.737 464.613 307.764 465.004 308.993C465.36 310.116 465.145 310.919 464.488 310.919C463.869 310.919 463.683 310.399 464.075 309.764C464.518 309.049 464.35 308.881 463.635 309.324C463 309.716 462.48 310.662 462.48 311.426C462.48 312.191 461.363 314.021 459.999 315.493C458.634 316.966 457.714 318.489 457.955 318.878C458.195 319.267 457.286 321.211 455.936 323.199C454.585 325.187 453.48 327.313 453.48 327.925C453.48 328.537 453.03 328.759 452.48 328.419C451.93 328.079 451.48 328.415 451.48 329.166C451.48 329.916 450.386 332.013 449.05 333.825C447.713 335.636 446.855 337.861 447.144 338.769C447.553 340.054 447.454 340.119 446.699 339.062C445.513 337.401 443.979 339.3 445.075 341.074C445.469 341.711 445.354 341.959 444.818 341.628C444.284 341.298 443.022 342.424 442.015 344.13C439.928 347.661 428.146 364.663 426.24 366.892C422.105 371.727 414.48 382.092 414.48 382.877C414.48 383.388 413.531 384.47 412.372 385.282C411.04 386.215 410.546 387.249 411.032 388.089C411.455 388.821 411.429 389.082 410.976 388.671C409.779 387.586 396.714 401.477 397.27 403.243C397.413 403.697 397.08 403.79 396.53 403.45C395.388 402.744 388.231 409.707 388.932 410.842C389.185 411.251 388.744 411.586 387.952 411.586C386.791 411.586 386.748 411.279 387.733 410.002C388.405 409.131 386.26 411.13 382.967 414.444C379.674 417.758 375.728 421.266 374.198 422.238C372.633 423.233 371.716 424.493 372.103 425.117C372.488 425.741 372.338 425.949 371.76 425.592C371.195 425.243 369.527 426.073 368.054 427.438C366.582 428.802 365.132 429.919 364.833 429.919C363.387 429.919 358.529 434.189 359.037 435.012C359.357 435.529 360.032 435.696 360.538 435.383C361.043 435.071 361.22 435.434 360.93 436.19C360.426 437.503 370.738 449.419 372.379 449.419C372.801 449.419 374.234 450.615 375.563 452.076C378.233 455.012 392.943 463.123 393.886 462.18C394.213 461.853 394.48 462.159 394.48 462.859C394.48 463.56 395.126 463.885 395.915 463.582C396.705 463.279 397.492 463.443 397.665 463.946C397.838 464.449 398.88 465 399.98 465.169C401.08 465.338 402.436 465.762 402.994 466.111C406.733 468.45 439.794 470.113 436.473 467.795C435.356 467.016 435.871 466.876 438.516 467.239C442.552 467.792 448.166 466.961 446.663 466.032C446.112 465.691 447.703 465.334 450.199 465.237C452.695 465.141 455.219 464.58 455.809 463.99C456.398 463.401 457.479 462.919 458.212 462.919C458.945 462.919 461.217 462.172 463.262 461.259C467.293 459.46 467.936 459.233 469.539 459.044C470.121 458.975 470.323 458.474 469.987 457.93C469.649 457.383 470.011 457.185 470.799 457.488C471.582 457.788 472.901 457.355 473.73 456.526C474.56 455.696 476.454 454.713 477.94 454.34C479.426 453.967 480.867 453.073 481.144 452.353C481.42 451.634 482.238 451.273 482.962 451.55C483.685 451.828 484.618 451.505 485.033 450.833C485.548 449.999 485.372 449.868 484.48 450.419C483.588 450.97 483.412 450.839 483.927 450.005C484.342 449.333 485.257 449.003 485.959 449.273C486.662 449.542 487.676 449.323 488.213 448.786C488.751 448.248 490.718 447.043 492.585 446.108C494.452 445.173 495.93 443.697 495.869 442.83C495.808 441.962 496.35 441.252 497.075 441.252C497.799 441.252 498.117 441.697 497.782 442.24C497.44 442.793 497.68 442.914 498.325 442.514C498.96 442.122 499.49 441.265 499.503 440.61C499.515 439.955 500.978 438.682 502.753 437.782C504.528 436.882 505.885 435.697 505.769 435.15C505.653 434.602 506.328 434.214 507.269 434.287C508.21 434.359 508.867 433.856 508.73 433.169C508.592 432.481 508.87 432.031 509.347 432.169C510.86 432.605 518.552 425.845 517.845 424.701C517.473 424.099 517.628 423.893 518.192 424.241C519.438 425.011 522.775 421.547 521.763 420.535C521.366 420.138 521.704 420.068 522.515 420.379C524.068 420.975 541.205 403.507 540.73 401.812C540.592 401.321 541.085 400.919 541.825 400.919C543.655 400.919 546.666 397.457 545.732 396.428C545.318 395.971 545.543 395.922 546.23 396.318C547.011 396.767 547.48 396.43 547.48 395.419C547.48 394.529 547.867 394.04 548.34 394.333C548.814 394.625 550.776 393.189 552.701 391.142C556.974 386.598 561.356 382.919 562.498 382.919C562.964 382.919 563.628 382.028 563.974 380.939C564.319 379.85 564.912 379.04 565.291 379.137C565.67 379.235 567.016 378.963 568.283 378.533C569.929 377.974 570.301 377.408 569.588 376.549C568.872 375.687 569.119 375.348 570.462 375.348C571.491 375.348 572.055 375.814 571.715 376.383C571.374 376.953 571.853 376.806 572.777 376.056C573.702 375.306 574.168 374.224 573.814 373.651C573.46 373.078 573.649 372.906 574.235 373.268C575.754 374.206 578.596 372.916 577.81 371.644C577.386 370.957 577.832 370.818 579.066 371.252C580.922 371.903 580.921 371.878 579.039 370.421C576.806 368.693 577.691 368.426 580.561 369.962C582.068 370.769 582.643 370.657 583.1 369.468C583.424 368.622 584.052 368.154 584.495 368.428C585.81 369.241 588.523 367.798 587.82 366.66C587.463 366.082 587.644 365.902 588.222 366.26C589.463 367.027 595.797 364.57 594.898 363.67C594.559 363.332 595.246 363.307 596.424 363.615C597.868 363.992 598.47 363.752 598.273 362.875C598.075 361.999 599.285 361.513 601.98 361.385C604.18 361.28 608.68 360.478 611.98 359.602C617.615 358.107 629.069 356.362 630.73 356.746C631.143 356.841 631.48 356.414 631.48 355.797C631.48 355.059 631.908 355 632.73 355.624C633.418 356.147 637.355 356.659 641.48 356.762C645.605 356.865 652.58 357.463 656.98 358.09C661.38 358.717 665.88 359.327 666.98 359.446C668.08 359.565 669.655 359.91 670.48 360.214C675.671 362.127 679.39 362.891 680.827 362.339C681.736 361.99 682.48 362.147 682.48 362.687C682.48 363.516 686.299 364.892 689.98 365.389C690.53 365.464 692.5 366.33 694.358 367.314C696.216 368.298 699.141 369.18 700.858 369.275C702.769 369.38 703.88 369.934 703.723 370.703C703.545 371.576 704.242 371.766 706.005 371.323C708.896 370.598 710.15 370.509 712.98 370.832L714.98 371.06L712.98 371.894C711.88 372.353 709.855 372.508 708.48 372.237C706.137 371.776 706.163 371.847 708.902 373.362C711.229 374.65 711.99 374.719 712.637 373.699C713.131 372.92 713.455 372.853 713.465 373.527C713.473 374.136 715.772 375.824 718.572 377.277C724.283 380.24 724.904 380.414 723.885 378.764C723.429 378.027 723.612 377.882 724.392 378.365C725.064 378.78 725.353 379.38 725.035 379.698C724.716 380.016 726.545 381.335 729.099 382.63C731.652 383.924 738.07 387.687 743.361 390.993C748.651 394.298 753.861 397.546 754.938 398.211C756.015 398.875 757.513 399.986 758.268 400.678C759.023 401.371 760.124 401.639 760.715 401.274C761.313 400.904 761.502 401.075 761.14 401.66C760.524 402.657 763.135 404.415 764.73 404.078C765.143 403.99 765.48 404.439 765.48 405.074C765.48 405.723 766.457 405.395 767.713 404.324C769.441 402.849 769.646 402.807 768.618 404.136C767.467 405.624 767.668 406.184 770.135 408.354C771.7 409.73 773.527 410.87 774.196 410.887C774.864 410.905 776.746 412.224 778.378 413.82C780.01 415.415 781.611 416.455 781.936 416.13C782.26 415.805 783.216 416.525 784.06 417.729C784.903 418.934 786.243 419.919 787.037 419.919C787.831 419.919 788.48 420.642 788.48 421.526C788.48 422.635 789.013 422.928 790.2 422.473C791.145 422.11 791.594 422.138 791.197 422.535C790.434 423.298 793.231 426.919 794.583 426.919C795.02 426.919 796.582 428.036 798.054 429.4C799.527 430.765 801.136 431.632 801.631 431.326C802.125 431.02 802.406 431.296 802.255 431.938C802.104 432.58 802.822 433.626 803.852 434.262C804.881 434.898 807.724 437.306 810.168 439.612C813.069 442.35 815.167 443.593 816.21 443.192C817.317 442.768 817.571 442.963 817.038 443.826C816.575 444.575 817.108 445.855 818.374 447.035C819.532 448.114 820.48 448.545 820.48 447.994C820.48 447.442 821.522 447.987 822.795 449.205C824.067 450.423 825.039 451.644 824.953 451.919C824.679 452.799 828.29 455.775 828.897 455.169C829.217 454.848 829.48 455.111 829.48 455.752C829.48 456.394 830.23 456.919 831.147 456.919C832.063 456.919 832.537 457.196 832.199 457.533C831.861 457.871 833.439 460.127 835.706 462.546C838.726 465.768 840.383 466.809 841.904 466.44C843.046 466.164 843.372 466.211 842.63 466.545C841.683 466.971 842.868 468.761 846.595 472.536C849.519 475.497 852.463 477.919 853.137 477.919C853.811 477.919 854.683 478.439 855.075 479.074C855.552 479.845 855.323 479.966 854.385 479.437C853.612 479.001 856.334 482.072 860.434 486.261C865.563 491.501 868.132 493.493 868.669 492.648C869.184 491.837 869.455 492.144 869.465 493.553C869.473 494.733 871.155 497.205 873.23 499.087C875.293 500.957 880.082 505.947 883.873 510.174C887.663 514.402 891.1 517.654 891.509 517.401C891.919 517.148 892.809 517.611 893.489 518.43C894.169 519.249 895.457 519.926 896.352 519.934C897.742 519.947 897.765 520.085 896.512 520.878C895.277 521.659 895.396 522.111 897.262 523.73C898.482 524.788 899.48 525.974 899.48 526.365C899.48 527.023 915.793 545.141 921.745 551.093C923.183 552.531 924.683 553.417 925.079 553.063C925.475 552.709 925.529 553.174 925.199 554.096C924.532 555.959 926.841 558.432 928.367 557.489C929.501 556.788 930.829 558.617 931.014 561.137C931.085 562.101 931.967 563.8 932.974 564.913C934.648 566.762 934.953 566.801 936.543 565.362C937.725 564.292 938.497 564.137 938.955 564.879C939.326 565.478 939.089 565.845 938.429 565.694C937.77 565.543 937.003 566.044 936.725 566.808C936.38 567.76 936.655 567.95 937.6 567.411C938.663 566.806 938.715 566.912 937.828 567.875C936.951 568.825 937.053 569.566 938.256 570.97C939.125 571.986 940.206 572.588 940.658 572.309C941.11 572.029 941.48 572.409 941.48 573.152C941.48 573.895 943.055 576.172 944.98 578.213C946.905 580.254 948.48 582.309 948.48 582.78C948.48 583.251 950.278 585.163 952.475 587.028C954.672 588.893 956.472 590.775 956.475 591.211C956.486 592.982 960.377 596.103 961.653 595.365C962.383 594.943 962.642 594.971 962.228 595.428C961.814 595.884 962.264 597.193 963.228 598.338L964.98 600.419L962.524 598.419L960.068 596.419L962.524 599.539C963.875 601.255 965.304 602.474 965.701 602.248C966.097 602.022 966.708 602.977 967.057 604.371C967.407 605.765 968.063 606.677 968.515 606.398C968.966 606.118 969.607 606.743 969.938 607.786C970.82 610.564 974.055 613.999 974.992 613.151C975.437 612.748 975.51 612.929 975.154 613.551C974.296 615.053 978.338 620.125 979.715 619.274C980.315 618.903 980.502 619.075 980.138 619.663C979.78 620.242 980.777 622.096 982.352 623.782C983.928 625.469 985.109 626.977 984.977 627.134C984.846 627.291 985.649 628.319 986.763 629.419C987.876 630.519 988.424 630.787 987.979 630.014C987.42 629.042 987.547 628.842 988.392 629.365C989.064 629.78 989.37 630.362 989.073 630.659C988.776 630.956 989.98 633.048 991.748 635.309C996.857 641.843 998.26 643.173 999.334 642.509C999.888 642.167 1000.67 642.413 1001.07 643.057C1001.52 643.788 1001.36 643.96 1000.64 643.514C998.939 642.467 999.226 644.463 1000.98 645.919C1001.81 646.604 1002.48 647.602 1002.48 648.137C1002.48 649.558 1006.46 654.919 1007.52 654.919C1008.01 654.919 1008.16 654.244 1007.84 653.419C1007.53 652.594 1007.56 651.919 1007.92 651.919C1008.92 651.919 1011.62 658.883 1011.01 659.878C1010.71 660.356 1010.81 660.899 1011.23 661.084C1011.65 661.268 1013.52 663.366 1015.38 665.745C1017.97 669.053 1018.99 669.759 1019.72 668.745C1020.44 667.738 1020.54 667.818 1020.14 669.075C1019.85 669.995 1020.47 671.509 1021.55 672.48C1022.61 673.442 1023.48 673.918 1023.48 673.539C1023.48 673.159 1024.27 673.252 1025.23 673.745C1028.54 675.441 1032.71 676.102 1031.91 674.805C1031.42 674.012 1031.6 673.874 1032.44 674.393C1033.18 674.849 1034.07 674.6 1034.58 673.797C1035.21 672.799 1035.45 672.764 1035.47 673.669C1035.47 674.357 1035.96 674.919 1036.54 674.919C1037.12 674.919 1037.28 674.411 1036.9 673.789C1036.48 673.113 1036.74 672.839 1037.54 673.107C1039.06 673.611 1043.66 670.018 1042.96 668.882C1042.71 668.477 1043.44 667.901 1044.59 667.6C1045.74 667.299 1046.42 666.623 1046.09 666.096C1045.76 665.569 1046.58 664.43 1047.9 663.565C1051.64 661.114 1067.61 636.475 1066.89 634.263C1066.47 632.979 1066.57 632.806 1067.21 633.693C1068.4 635.344 1073.82 624.955 1072.95 622.689C1072.61 621.827 1072.82 620.827 1073.4 620.468C1074.06 620.063 1074.25 620.5 1073.9 621.617C1073.59 622.608 1073.99 622.338 1074.78 621.017C1075.57 619.696 1075.98 617.713 1075.69 616.611C1075.37 615.406 1075.57 614.856 1076.18 615.231C1076.73 615.575 1077.7 614.724 1078.33 613.341C1079.9 609.9 1079.77 609.151 1078.01 611.478C1077.2 612.545 1076.53 613.169 1076.51 612.863C1076.49 612.558 1077.61 610.783 1078.98 608.919C1081.68 605.255 1082.23 603.352 1080.23 604.552C1079.26 605.132 1079.24 604.976 1080.14 603.861C1080.77 603.068 1081.45 601.519 1081.64 600.419C1081.83 599.319 1082.4 598.115 1082.92 597.743C1083.44 597.371 1083.87 594.806 1083.89 592.043C1083.91 589.279 1084.27 587.559 1084.69 588.219C1085.38 589.317 1085.97 586.96 1085.59 584.628C1085.51 584.194 1085.9 583.006 1086.44 581.989C1087.65 579.733 1088.83 571.26 1088.91 564.169C1088.95 561.281 1089.36 558.919 1089.83 558.919C1091.34 558.919 1089.21 517.124 1087.64 515.921C1087.28 515.645 1086.88 514.073 1086.76 512.429C1086.64 510.784 1086.08 509.284 1085.51 509.095C1084.94 508.907 1084.48 508.313 1084.48 507.777C1084.48 507.24 1084.93 507.079 1085.48 507.419C1086.75 508.203 1086.74 507.817 1085.3 502.112C1084.65 499.531 1083.58 496.882 1082.93 496.225C1082.27 495.569 1081.96 493.882 1082.22 492.475C1082.61 490.475 1082.31 489.916 1080.85 489.904C1079.61 489.894 1079.38 489.631 1080.18 489.129C1080.83 488.711 1081.2 487.481 1081 486.394C1080.8 485.308 1080.6 484.082 1080.56 483.669C1080.51 483.256 1080 482.919 1079.41 482.919C1078.79 482.919 1078.6 483.861 1078.95 485.169C1079.52 487.247 1079.45 487.228 1078.06 484.919C1076.5 482.327 1075.85 479.378 1077.37 481.776C1078.03 482.819 1078.4 482.851 1078.98 481.914C1079.4 481.244 1079.17 480.346 1078.48 479.919C1077.79 479.492 1077.5 478.689 1077.85 478.136C1078.19 477.582 1077.75 476.853 1076.87 476.515C1075.88 476.137 1075.51 475.277 1075.9 474.266C1076.25 473.366 1075.92 471.907 1075.17 471.024C1074.43 470.141 1073.03 467.286 1072.07 464.679C1071.11 462.073 1069.84 459.641 1069.25 459.275C1068.56 458.852 1068.47 459.087 1068.98 459.919C1069.52 460.796 1069.4 460.987 1068.61 460.498C1067.96 460.097 1067.49 459.24 1067.57 458.594C1067.89 456.023 1067.41 454.919 1065.98 454.919C1065.16 454.919 1064.48 454.442 1064.48 453.86C1064.48 453.278 1065.02 453.132 1065.67 453.537C1067.36 454.578 1062.67 446.845 1060.1 444.356C1058.94 443.221 1057.87 441.766 1057.74 441.121C1057.34 439.214 1050.23 430.181 1044.23 423.967C1042.72 422.399 1041.48 420.716 1041.48 420.226C1041.48 418.943 1033.12 410.921 1030.33 409.534C1029.04 408.889 1027.39 407.136 1026.68 405.64C1025.96 404.143 1024.92 402.919 1024.37 402.919C1023.81 402.919 1023.59 403.294 1023.88 403.752C1024.16 404.211 1023.74 404.586 1022.95 404.586C1021.95 404.586 1021.81 404.221 1022.5 403.399C1023.2 402.556 1021.36 400.001 1016.17 394.587C1009.18 387.295 1008.78 387.039 1007.03 388.691C1005.75 389.899 1005.46 389.967 1006.06 388.919C1006.54 388.094 1007 386.889 1007.1 386.242C1007.26 385.199 995.983 373.891 990.823 369.919C989.752 369.094 989.574 368.831 990.427 369.335C992.211 370.386 985.134 363.426 983.19 362.217C982.485 361.778 980.953 360.173 979.785 358.65C977.844 356.118 977.525 356.017 976.071 357.471C975.196 358.346 974.48 358.67 974.48 358.19C974.48 357.711 974.966 356.833 975.559 356.24C976.331 355.468 974.895 353.298 970.512 348.613C965.448 343.199 963.878 342.095 961.451 342.242C959.837 342.339 958.62 341.969 958.748 341.419C958.876 340.869 959.243 340.507 959.563 340.613C959.884 340.72 960.147 340.174 960.147 339.399C960.147 338.623 957.885 335.836 955.121 333.204C952.357 330.572 950.434 328.982 950.847 329.669C951.26 330.357 951.121 330.919 950.539 330.919C949.957 330.919 949.48 330.08 949.48 329.055C949.48 328.009 947.725 325.975 945.48 324.419C943.28 322.894 941.48 321.344 941.48 320.974C941.48 320.604 940.804 319.428 939.978 318.36C938.497 316.447 938.483 316.448 938.992 318.419C939.277 319.519 938.841 318.991 938.023 317.246C937.206 315.5 936.004 313.743 935.354 313.341C934.561 312.851 934.438 313.042 934.98 313.919C935.515 314.785 935.398 314.987 934.635 314.514C934 314.122 933.48 313.243 933.48 312.56C933.48 311.877 932.946 310.785 932.294 310.133C931.379 309.218 930.715 309.301 929.393 310.498C928.225 311.555 927.464 311.702 927.005 310.959C926.634 310.36 926.868 309.993 927.523 310.144C928.178 310.295 928.845 309.642 929.005 308.692C929.304 306.922 923.337 300.919 921.279 300.919C920.656 300.919 920.453 300.613 920.827 300.238C921.847 299.218 916.451 293.993 914.966 294.563C914.26 294.834 913.342 294.505 912.927 293.833C912.446 293.055 912.587 292.867 913.314 293.316C914.054 293.774 914.247 293.475 913.862 292.471C913.534 291.617 912.628 290.919 911.848 290.919C911.068 290.919 910.003 289.794 909.48 288.419C908.957 287.044 908.245 285.919 907.898 285.919C907.55 285.919 907.563 286.707 907.927 287.669C908.534 289.275 908.455 289.288 906.967 287.816C906.076 286.935 905.204 285.36 905.03 284.316C904.857 283.273 904.202 282.535 903.575 282.676C902.949 282.818 901.985 281.746 901.433 280.294C900.442 277.688 900.403 277.679 898.313 279.537C896.212 281.405 896.207 281.403 897.569 279.185C898.869 277.069 898.44 276.45 889.476 267.52C884.271 262.334 879.667 258.304 879.246 258.564C878.825 258.824 878.48 258.362 878.48 257.537C878.48 256.712 877.96 255.716 877.325 255.324C876.691 254.931 876.432 255.033 876.752 255.55C877.072 256.067 876.491 256.49 875.462 256.49C874.071 256.49 873.859 256.167 874.636 255.231C875.418 254.289 874.772 253.434 872.081 251.846C870.1 250.678 868.487 249.203 868.495 248.57C868.504 247.914 868.967 248.064 869.571 248.919C870.514 250.252 870.582 250.252 870.181 248.919C869.933 248.094 869.185 247.544 868.519 247.698C867.853 247.851 867.07 247.069 866.78 245.959C866.49 244.849 865.886 244.168 865.438 244.445C864.99 244.722 864.367 244.139 864.054 243.151C863.74 242.163 860.983 238.894 857.928 235.886C854.866 232.873 852.705 231.317 853.114 232.419C853.762 234.169 853.651 234.254 852.227 233.096C851.331 232.368 850.818 231.202 851.086 230.504C851.661 229.004 844.144 221.919 841.977 221.919C841.154 221.919 840.48 221.442 840.48 220.86C840.48 220.278 841 220.122 841.635 220.514C842.35 220.957 842.518 220.789 842.075 220.074C841.683 219.439 840.544 218.919 839.543 218.919C838.543 218.919 837.165 218.244 836.48 217.419C835.752 216.542 835.66 215.919 836.258 215.919C836.82 215.919 835.637 214.248 833.63 212.205C831.622 210.162 829.67 208.578 829.291 208.684C828.912 208.791 828.35 208.086 828.043 207.118C827.314 204.822 809.184 186.919 807.588 186.919C806.884 186.919 806.673 187.451 807.093 188.169C807.495 188.857 806.924 188.631 805.823 187.669C803.665 185.781 801.992 185.32 802.955 186.879C803.33 187.486 802.524 187.506 800.764 186.935C796.944 185.694 775.957 184.156 764.824 184.3C759.789 184.366 756.15 184.122 756.737 183.759C757.325 183.396 740.746 183.057 719.893 183.006C699.041 182.954 682.501 183.251 683.137 183.665ZM773.209 187.523C772.877 187.855 772.014 187.891 771.293 187.602C770.495 187.283 770.732 187.046 771.897 186.998C772.951 186.955 773.541 187.191 773.209 187.523ZM789.73 187.581C789.043 187.859 787.918 187.859 787.23 187.581C786.543 187.304 787.105 187.077 788.48 187.077C789.855 187.077 790.418 187.304 789.73 187.581ZM654.209 188.523C653.877 188.855 653.014 188.891 652.293 188.602C651.495 188.283 651.732 188.046 652.897 187.998C653.951 187.955 654.541 188.191 654.209 188.523ZM777.209 188.523C776.877 188.855 776.014 188.891 775.293 188.602C774.495 188.283 774.732 188.046 775.897 187.998C776.951 187.955 777.541 188.191 777.209 188.523ZM781.209 188.523C780.877 188.855 780.014 188.891 779.293 188.602C778.495 188.283 778.732 188.046 779.897 187.998C780.951 187.955 781.541 188.191 781.209 188.523ZM814.48 193.919C814.48 194.469 814.282 194.919 814.039 194.919C813.796 194.919 813.32 194.469 812.98 193.919C812.64 193.369 812.839 192.919 813.421 192.919C814.003 192.919 814.48 193.369 814.48 193.919ZM599.973 196.908C600.323 197.474 599.922 197.642 599.032 197.301C597.3 196.636 596.983 195.919 598.421 195.919C598.939 195.919 599.637 196.364 599.973 196.908ZM820.476 199.415C821.766 200.788 822.632 202.092 822.401 202.312C822.169 202.533 820.794 201.41 819.345 199.816C817.896 198.223 817.03 196.919 817.421 196.919C817.812 196.919 819.187 198.042 820.476 199.415ZM570.006 203.726C569.699 204.034 568.892 203.727 568.213 203.043C567.233 202.055 567.348 201.941 568.773 202.483C569.759 202.859 570.314 203.418 570.006 203.726ZM826.287 206.445C825.979 206.753 825.42 206.198 825.044 205.212C824.502 203.787 824.616 203.672 825.604 204.652C826.288 205.331 826.595 206.138 826.287 206.445ZM525.98 220.919C525.64 221.469 525.839 221.919 526.421 221.919C527.003 221.919 527.48 221.469 527.48 220.919C527.48 220.369 527.282 219.919 527.039 219.919C526.796 219.919 526.32 220.369 525.98 220.919ZM845.48 224.919C845.48 225.469 845.282 225.919 845.039 225.919C844.796 225.919 844.32 225.469 843.98 224.919C843.64 224.369 843.839 223.919 844.421 223.919C845.003 223.919 845.48 224.369 845.48 224.919ZM857.608 236.669C858.851 238.255 858.816 238.29 857.23 237.047C856.268 236.292 855.48 235.504 855.48 235.297C855.48 234.474 856.301 235.003 857.608 236.669ZM861.287 241.445C860.979 241.753 860.42 241.198 860.044 240.212C859.502 238.787 859.616 238.672 860.604 239.652C861.288 240.331 861.595 241.138 861.287 241.445ZM882.302 264.633C881.715 265.34 881.113 265.919 880.965 265.919C880.816 265.919 880.472 265.34 880.201 264.633C879.909 263.874 880.457 263.348 881.538 263.348C882.917 263.348 883.106 263.665 882.302 264.633ZM888.608 267.669C889.851 269.255 889.816 269.29 888.23 268.047C886.564 266.74 886.035 265.919 886.858 265.919C887.065 265.919 887.853 266.707 888.608 267.669ZM893.686 273.379C893.966 273.1 894.822 273.669 895.587 274.645C896.802 276.193 896.789 276.276 895.48 275.297C894.655 274.681 893.289 274.289 892.444 274.427C891.503 274.582 890.909 273.925 890.909 272.732C890.909 271.035 891.054 270.984 892.043 272.336C892.667 273.19 893.407 273.659 893.686 273.379ZM485.48 278.919C485.48 279.469 485.003 279.919 484.421 279.919C483.839 279.919 483.64 279.469 483.98 278.919C484.32 278.369 484.796 277.919 485.039 277.919C485.282 277.919 485.48 278.369 485.48 278.919ZM913.98 296.919C914.975 298.019 915.565 298.919 915.29 298.919C915.015 298.919 913.975 298.019 912.98 296.919C911.985 295.819 911.395 294.919 911.67 294.919C911.945 294.919 912.985 295.819 913.98 296.919ZM919.406 298.33C920.303 299.41 920.295 299.915 919.374 300.484C918.635 300.941 918.432 300.806 918.847 300.135C919.218 299.534 918.725 298.578 917.751 298.011C916.777 297.444 916.487 296.966 917.108 296.949C917.728 296.933 918.762 297.554 919.406 298.33ZM927.019 305.962C928.538 307.64 928.579 307.894 927.251 307.385C926.362 307.044 925.389 306.124 925.089 305.342C924.342 303.395 924.841 303.555 927.019 305.962ZM937.48 320.419C938.198 321.284 938.295 321.919 937.709 321.919C937.151 321.919 936.435 321.244 936.118 320.419C935.802 319.594 935.699 318.919 935.889 318.919C936.079 318.919 936.795 319.594 937.48 320.419ZM457.48 326.252C457.48 326.986 456.805 327.586 455.98 327.586C454.398 327.586 454.03 326.702 455.147 325.586C456.251 324.482 457.48 324.833 457.48 326.252ZM946.98 326.919C947.975 328.019 948.565 328.919 948.29 328.919C948.015 328.919 946.975 328.019 945.98 326.919C944.985 325.819 944.395 324.919 944.67 324.919C944.945 324.919 945.985 325.819 946.98 326.919ZM958.608 337.669C959.851 339.255 959.816 339.29 958.23 338.047C956.564 336.74 956.035 335.919 956.858 335.919C957.065 335.919 957.853 336.707 958.608 337.669ZM450.48 341.312C450.48 341.528 449.782 341.973 448.928 342.301C448.038 342.642 447.637 342.474 447.987 341.908C448.574 340.957 450.48 340.502 450.48 341.312ZM970.392 350.341C970.125 350.608 968.621 349.16 967.051 347.123L964.196 343.419L967.537 346.637C969.374 348.407 970.659 350.073 970.392 350.341ZM669.209 354.523C668.877 354.855 668.014 354.891 667.293 354.602C666.495 354.283 666.732 354.046 667.897 353.998C668.951 353.955 669.541 354.191 669.209 354.523ZM434.251 364.481C433.916 364.816 433.103 364.039 432.444 362.755C431.299 360.522 431.326 360.495 433.054 362.145C434.048 363.095 434.587 364.146 434.251 364.481ZM986.48 365.919C986.48 366.469 986.282 366.919 986.039 366.919C985.796 366.919 985.32 366.469 984.98 365.919C984.64 365.369 984.839 364.919 985.421 364.919C986.003 364.919 986.48 365.369 986.48 365.919ZM426.937 368.85C427.254 369.362 427.13 370.017 426.663 370.306C426.196 370.595 425.813 370.176 425.813 369.375C425.813 367.689 426.129 367.542 426.937 368.85ZM426.48 373.919C426.48 374.469 426.003 374.919 425.421 374.919C424.839 374.919 424.64 374.469 424.98 373.919C425.32 373.369 425.796 372.919 426.039 372.919C426.282 372.919 426.48 373.369 426.48 373.919ZM427.604 376.186C426.616 377.166 426.502 377.051 427.044 375.626C427.42 374.64 427.979 374.085 428.287 374.393C428.595 374.7 428.288 375.507 427.604 376.186ZM998.556 377.501C1000.12 379.163 1000.45 379.965 999.48 379.751C998.471 379.528 998.075 380.073 998.272 381.419C998.509 383.049 998.378 383.143 997.563 381.927C996.936 380.991 996.915 380.084 997.508 379.491C998.101 378.898 997.842 377.871 996.811 376.733C994.253 373.906 995.834 374.603 998.556 377.501ZM420.124 378.323C420.045 379.645 419.566 380.471 419.06 380.159C418.533 379.834 418.452 380.409 418.869 381.505C419.401 382.901 419.299 383.122 418.491 382.321C417.682 381.519 417.709 380.51 418.593 378.571C420.081 375.304 420.308 375.267 420.124 378.323ZM562.98 379.919C563.32 380.469 563.121 380.919 562.539 380.919C561.957 380.919 561.48 380.469 561.48 379.919C561.48 379.369 561.678 378.919 561.921 378.919C562.164 378.919 562.64 379.369 562.98 379.919ZM417.877 383.752C418.16 384.211 417.757 384.586 416.98 384.586C416.203 384.586 415.8 384.211 416.083 383.752C416.366 383.294 416.77 382.919 416.98 382.919C417.19 382.919 417.594 383.294 417.877 383.752ZM1005.94 384.85C1006.25 385.362 1006.13 386.017 1005.66 386.306C1005.2 386.595 1004.81 386.176 1004.81 385.375C1004.81 383.689 1005.13 383.542 1005.94 384.85ZM742.48 385.36C742.48 385.603 742.03 386.079 741.48 386.419C740.93 386.759 740.48 386.56 740.48 385.978C740.48 385.396 740.93 384.919 741.48 384.919C742.03 384.919 742.48 385.117 742.48 385.36ZM405.973 395.908C406.323 396.474 405.922 396.642 405.032 396.301C403.3 395.636 402.983 394.919 404.421 394.919C404.939 394.919 405.637 395.364 405.973 395.908ZM1027.48 406.297C1027.48 406.504 1028.27 407.292 1029.23 408.047C1030.82 409.29 1030.85 409.255 1029.61 407.669C1028.3 406.003 1027.48 405.474 1027.48 406.297ZM1032.89 415.069C1032.17 416.234 1028.46 414.149 1028.56 412.634C1028.62 411.718 1028.76 411.727 1029.14 412.669C1029.93 414.614 1031.77 414.139 1031.09 412.169C1030.56 410.666 1030.68 410.687 1031.95 412.316C1032.75 413.36 1033.18 414.599 1032.89 415.069ZM1037.55 418.249C1036.96 418.844 1036.93 419.881 1037.47 420.906C1038.1 422.068 1037.98 422.586 1037.11 422.586C1035.8 422.586 1035.58 419.49 1036.8 418.271C1037.17 417.891 1036.7 416.645 1035.73 415.5L1033.98 413.419L1036.25 415.345C1037.73 416.599 1038.19 417.613 1037.55 418.249ZM379.604 422.186C378.616 423.166 378.502 423.051 379.044 421.626C379.42 420.64 379.979 420.085 380.287 420.393C380.595 420.7 380.288 421.507 379.604 422.186ZM798.608 426.669C799.851 428.255 799.816 428.29 798.23 427.047C796.564 425.74 796.035 424.919 796.858 424.919C797.065 424.919 797.853 425.707 798.608 426.669ZM494.757 443.478C494.635 443.927 493.789 444.403 492.877 444.537C491.675 444.713 491.52 444.479 492.315 443.684C493.109 442.89 492.939 442.191 491.695 441.144C490.287 439.958 490.427 439.965 492.48 441.181C493.855 441.996 494.88 443.03 494.757 443.478ZM476.48 452.36C476.48 452.603 476.03 453.079 475.48 453.419C474.93 453.759 474.48 453.56 474.48 452.978C474.48 452.396 474.93 451.919 475.48 451.919C476.03 451.919 476.48 452.117 476.48 452.36ZM837.48 460.919C837.48 461.469 837.282 461.919 837.039 461.919C836.796 461.919 836.32 461.469 835.98 460.919C835.64 460.369 835.839 459.919 836.421 459.919C837.003 459.919 837.48 460.369 837.48 460.919ZM444.087 463.39C443.745 465.721 442.913 466.023 442.752 463.876C442.671 462.8 442.987 461.919 443.454 461.919C443.921 461.919 444.206 462.581 444.087 463.39ZM1069.08 463.074C1069.52 463.789 1069.35 463.957 1068.64 463.514C1068 463.122 1067.48 463.353 1067.48 464.027C1067.48 464.701 1067.21 464.982 1066.88 464.652C1066.31 464.08 1067.18 461.919 1067.98 461.919C1068.19 461.919 1068.68 462.439 1069.08 463.074ZM416.584 466.215C415.3 467.499 413.999 466.507 414.949 464.969C415.317 464.374 416.076 464.17 416.636 464.516C417.319 464.938 417.302 465.497 416.584 466.215ZM861.268 485.056C861.018 485.805 860.565 485.351 860.211 483.999C859.776 482.336 859.906 481.945 860.648 482.687C861.23 483.269 861.508 484.334 861.268 485.056ZM1077.66 493.136C1076.95 493.853 1076.48 493.912 1076.48 493.286C1076.48 491.951 1077.66 490.768 1078.33 491.436C1078.61 491.72 1078.31 492.485 1077.66 493.136ZM883.474 506.919L884.739 509.419L882.737 507.419C881.637 506.319 880.948 505.052 881.208 504.602C881.771 503.629 881.851 503.71 883.474 506.919ZM894.752 513.985C894.357 515.496 893.915 515.754 893.104 514.943C892.294 514.133 892.397 513.583 893.488 512.893C894.309 512.374 895.05 511.943 895.136 511.934C895.222 511.926 895.05 512.849 894.752 513.985ZM899.98 521.919C900.32 522.469 900.121 522.919 899.539 522.919C898.957 522.919 898.48 522.469 898.48 521.919C898.48 521.369 898.678 520.919 898.921 520.919C899.164 520.919 899.64 521.369 899.98 521.919ZM1085.6 524.186C1084.62 525.166 1084.5 525.051 1085.04 523.626C1085.42 522.64 1085.98 522.085 1086.29 522.393C1086.6 522.7 1086.29 523.507 1085.6 524.186ZM934.051 559.086C934.051 560.094 933.939 560.919 933.801 560.919C933.663 560.919 933.109 560.094 932.569 559.086C931.865 557.769 931.935 557.252 932.82 557.252C933.497 557.252 934.051 558.077 934.051 559.086ZM928.48 558.919C928.48 559.469 928.957 559.919 929.539 559.919C930.121 559.919 930.32 559.469 929.98 558.919C929.64 558.369 929.164 557.919 928.921 557.919C928.678 557.919 928.48 558.369 928.48 558.919ZM933.287 563.445C932.979 563.753 932.42 563.198 932.044 562.212C931.502 560.787 931.616 560.672 932.604 561.652C933.288 562.331 933.595 563.138 933.287 563.445ZM941.48 569.919C941.48 570.469 941.03 570.919 940.48 570.919C939.93 570.919 939.48 570.469 939.48 569.919C939.48 569.369 939.93 568.919 940.48 568.919C941.03 568.919 941.48 569.369 941.48 569.919ZM946.163 577.107C945.844 577.904 945.607 577.667 945.559 576.502C945.516 575.448 945.752 574.858 946.084 575.19C946.416 575.522 946.452 576.385 946.163 577.107ZM954.604 586.186C953.616 587.166 953.502 587.051 954.044 585.626C954.42 584.64 954.979 584.085 955.287 584.393C955.595 584.7 955.288 585.507 954.604 586.186ZM1053.6 651.186C1052.62 652.166 1052.5 652.051 1053.04 650.626C1053.42 649.64 1053.98 649.085 1054.29 649.393C1054.6 649.7 1054.29 650.507 1053.6 651.186ZM1007.98 655.919C1007.64 656.469 1007.84 656.919 1008.42 656.919C1009 656.919 1009.48 656.469 1009.48 655.919C1009.48 655.369 1009.28 654.919 1009.04 654.919C1008.8 654.919 1008.32 655.369 1007.98 655.919ZM1028.48 665.919C1028.48 666.469 1028.28 666.919 1028.04 666.919C1027.8 666.919 1027.32 666.469 1026.98 665.919C1026.64 665.369 1026.84 664.919 1027.42 664.919C1028 664.919 1028.48 665.369 1028.48 665.919ZM1042.48 665.919C1042.48 666.469 1042.28 666.919 1042.04 666.919C1041.8 666.919 1041.32 666.469 1040.98 665.919C1040.64 665.369 1040.84 664.919 1041.42 664.919C1042 664.919 1042.48 665.369 1042.48 665.919Z" fill="#FF8503"/>
<path fill-rule="evenodd" clip-rule="evenodd" d="M517.482 1.17236C489.667 5.64236 465.785 15.1814 440.852 31.7794C425.803 41.7984 440.233 27.6634 217.255 250.798C122.68 345.441 43.8302 425.145 39.8312 430.145C29.9572 442.49 24.8302 450.646 17.9532 464.946C5.92118 489.965 -0.0378194 516.909 0.000180588 546.119C0.0561806 588.817 13.2532 626.657 40.2932 661.645C46.7142 669.955 413.47 1037.25 425.482 1047.4C452.464 1070.2 480.472 1082.95 517.488 1089.27C532.422 1091.82 560.757 1091.57 576.475 1088.75C592.002 1085.96 609.282 1080.81 622.463 1075.04C639.458 1067.6 644.268 1062.96 644.268 1054.01C644.268 1047.28 641.467 1043.94 625.9 1032.15C540.056 967.09 427.873 871.231 387.058 828.056C375.185 815.498 372.982 812.224 372.982 807.143C372.982 796.294 386.224 788.812 394.658 794.895C396.374 796.132 401.537 801.366 406.13 806.524C419.784 821.857 470.991 868.989 503.895 896.508C511.368 902.758 520.632 910.658 524.482 914.063C528.332 917.469 536.432 924.248 542.482 929.13C548.532 934.011 558.432 942.118 564.482 947.145C604.712 980.576 668.722 1029.32 673.594 1030.23C682.271 1031.86 681.434 1032.53 724.215 989.861C746.069 968.067 764.631 948.797 765.465 947.039C767.732 942.263 767.405 935.573 764.708 931.543C763.458 929.674 757.045 924.135 750.458 919.233C694.863 877.863 620.535 817.052 556.005 760.145C528.988 736.32 488.787 696.675 485.334 690.455C483.276 686.746 483.691 680.367 486.232 676.644C488.914 672.716 494.288 669.645 498.482 669.645C503.455 669.645 507.202 672.515 519.056 685.401C539.935 708.099 587.695 751.001 647.526 800.802C714.94 856.916 782.639 909.264 791.053 911.785C799.571 914.336 799.67 914.259 842.715 871.348C864.293 849.837 882.631 830.798 883.465 829.04C885.562 824.621 885.362 819.31 882.919 814.522C880.628 810.032 801.02 729.788 766.482 697.155C706.371 640.36 654.979 595.621 625.745 574.639C612.081 564.832 609.947 560.724 613.946 551.916C617.328 544.465 625.943 541.505 633.25 545.284C637.727 547.599 661.775 565.528 672.482 574.533C707.591 604.061 743.582 636.194 779.982 670.508C811.1 699.843 867.21 755.171 884.419 773.489C893.637 783.302 902.486 792.102 904.082 793.045C907.483 795.054 915.71 795.372 919.12 793.626C922.377 791.958 1000.78 713.792 1002.55 710.445C1004.54 706.694 1004.37 698.749 1002.23 695.471C999.544 691.36 974.027 659.45 948.067 627.744C863.29 524.196 799.974 461.861 739.482 422.391C723.482 411.951 712.657 406.061 698.8 400.255C673.109 389.492 657.221 386.135 635.592 386.901C619.55 387.47 609.302 389.943 596.694 396.287C583.769 402.791 577.758 407.626 558.982 426.619C531.187 454.737 513.959 468.369 490.982 480.426C467.629 492.68 448.478 497.869 426.482 497.901C405.183 497.933 387.211 492.969 368.482 481.881C349.863 470.859 324.974 440.563 324.986 428.935C324.991 423.1 327.85 419.627 338.593 412.404C349.696 404.939 370.896 386.722 381.492 375.541C396.264 359.954 412.157 337.813 434.182 302.138C462.296 256.601 482.506 225.723 491.525 214.526C501.147 202.581 512.317 194.426 532.482 184.625C562.869 169.857 601.855 160.67 653.482 156.113C674.94 154.219 739.784 153.152 762.229 154.323L777.976 155.145L723.229 100.351C693.118 70.2144 665.107 42.8884 660.982 39.6274C638.685 21.9964 611.962 9.34438 583.495 2.94038C573.924 0.787377 569.47 0.414369 549.482 0.0943685C532.679 -0.174631 524.057 0.115356 517.482 1.17236Z" fill="#4E086B"/>
</svg>
