<svg width="21" height="17" viewBox="0 0 21 17" fill="none" xmlns="http://www.w3.org/2000/svg">
<path d="M2.09212 16.5C1.51921 16.5 1.02893 16.3043 0.621289 15.913C0.212956 15.521 0.00878906 15.05 0.00878906 14.5V2.5C0.00878906 1.95 0.212956 1.47933 0.621289 1.088C1.02893 0.696 1.51921 0.5 2.09212 0.5H18.7588C19.3317 0.5 19.8223 0.696 20.2307 1.088C20.6383 1.47933 20.8421 1.95 20.8421 2.5V14.5C20.8421 15.05 20.6383 15.521 20.2307 15.913C19.8223 16.3043 19.3317 16.5 18.7588 16.5H2.09212ZM2.09212 14.5H13.0296V11H2.09212V14.5ZM15.113 14.5H18.7588V5.5H15.113V14.5ZM2.09212 9H13.0296V5.5H2.09212V9Z" fill="#4C0C6C"/>
</svg>
