<svg width="18" height="17" viewBox="0 0 18 17" fill="none" xmlns="http://www.w3.org/2000/svg">
<path d="M5.17578 10.696H10.297C10.5379 10.696 10.7362 10.6178 10.892 10.4615C11.0479 10.3057 11.1258 10.1125 11.1258 9.88176C11.1258 9.65106 11.0445 9.45755 10.8818 9.30122C10.7186 9.14543 10.5166 9.06753 10.2758 9.06753H5.15453C4.9137 9.06753 4.71536 9.14543 4.55953 9.30122C4.4037 9.45755 4.32578 9.65106 4.32578 9.88176C4.32578 10.1125 4.4071 10.3057 4.56973 10.4615C4.73293 10.6178 4.93495 10.696 5.17578 10.696ZM5.17578 8.25331H13.697C13.9379 8.25331 14.1362 8.17514 14.292 8.01881C14.4479 7.86302 14.5258 7.66978 14.5258 7.43909C14.5258 7.20839 14.4442 7.01487 14.281 6.85854C14.1183 6.70276 13.9166 6.62486 13.6758 6.62486H5.15453C4.9137 6.62486 4.71536 6.70276 4.55953 6.85854C4.4037 7.01487 4.32578 7.20839 4.32578 7.43909C4.32578 7.66978 4.4071 7.86302 4.56973 8.01881C4.73293 8.17514 4.93495 8.25331 5.17578 8.25331ZM5.17578 5.81064H13.697C13.9379 5.81064 14.1362 5.73274 14.292 5.57695C14.4479 5.42062 14.5258 5.22711 14.5258 4.99641C14.5258 4.76572 14.4442 4.5722 14.281 4.41587C14.1183 4.26008 13.9166 4.18219 13.6758 4.18219H5.15453C4.9137 4.18219 4.71536 4.26008 4.55953 4.41587C4.4037 4.5722 4.32578 4.76572 4.32578 4.99641C4.32578 5.22711 4.4071 5.42062 4.56973 5.57695C4.73293 5.73274 4.93495 5.81064 5.17578 5.81064ZM0.925781 15.2353V2.55374C0.925781 2.10592 1.09238 1.72242 1.42558 1.40324C1.75821 1.08461 2.15828 0.925293 2.62578 0.925293H16.2258C16.6933 0.925293 17.0936 1.08461 17.4268 1.40324C17.7595 1.72242 17.9258 2.10592 17.9258 2.55374V12.3244C17.9258 12.7723 17.7595 13.1558 17.4268 13.4749C17.0936 13.7936 16.6933 13.9529 16.2258 13.9529H4.32578L2.37078 15.8256C2.10161 16.0834 1.79335 16.141 1.44598 15.9982C1.09918 15.856 0.925781 15.6017 0.925781 15.2353ZM2.62578 13.2811L3.62453 12.3244H16.2258V2.55374H2.62578V13.2811Z" fill="#4C0C6C"/>
</svg>
