<svg width="21" height="19" viewBox="0 0 21 19" fill="none" xmlns="http://www.w3.org/2000/svg">
<path d="M10.1045 18.0482L8.65449 16.8024C6.97116 15.3489 5.57949 14.0951 4.47949 13.0409C3.37949 11.9867 2.50449 11.0402 1.85449 10.2014C1.20449 9.36313 0.750492 8.59263 0.492492 7.88985C0.233826 7.18707 0.104492 6.46832 0.104492 5.7336C0.104492 4.23221 0.629492 2.97839 1.67949 1.97214C2.72949 0.965893 4.03783 0.462769 5.60449 0.462769C6.47116 0.462769 7.29616 0.638463 8.07949 0.989852C8.86283 1.34124 9.53783 1.83638 10.1045 2.47527C10.6712 1.83638 11.3462 1.34124 12.1295 0.989852C12.9128 0.638463 13.7378 0.462769 14.6045 0.462769C16.1712 0.462769 17.4795 0.965893 18.5295 1.97214C19.5795 2.97839 20.1045 4.23221 20.1045 5.7336C20.1045 6.46832 19.9755 7.18707 19.7175 7.88985C19.4588 8.59263 19.0045 9.36313 18.3545 10.2014C17.7045 11.0402 16.8295 11.9867 15.7295 13.0409C14.6295 14.0951 13.2378 15.3489 11.5545 16.8024L10.1045 18.0482ZM10.1045 15.4607C11.7045 14.0871 13.0212 12.909 14.0545 11.9264C15.0878 10.9444 15.9045 10.0902 16.5045 9.36377C17.1045 8.63671 17.5212 7.98952 17.7545 7.42218C17.9878 6.85549 18.1045 6.29263 18.1045 5.7336C18.1045 4.77527 17.7712 3.97666 17.1045 3.33777C16.4378 2.69888 15.6045 2.37944 14.6045 2.37944C13.8212 2.37944 13.0962 2.59091 12.4295 3.01385C11.7628 3.43743 11.3045 3.97666 11.0545 4.63152H9.15449C8.90449 3.97666 8.44616 3.43743 7.77949 3.01385C7.11283 2.59091 6.38783 2.37944 5.60449 2.37944C4.60449 2.37944 3.77116 2.69888 3.10449 3.33777C2.43783 3.97666 2.10449 4.77527 2.10449 5.7336C2.10449 6.29263 2.22116 6.85549 2.45449 7.42218C2.68783 7.98952 3.10449 8.63671 3.70449 9.36377C4.30449 10.0902 5.12116 10.9444 6.15449 11.9264C7.18783 12.909 8.50449 14.0871 10.1045 15.4607Z" fill="#4C0C6C"/>
</svg>
