<svg width="21" height="19" viewBox="0 0 21 19" fill="none" xmlns="http://www.w3.org/2000/svg">
<path d="M4.39562 18.3333C3.2827 18.3333 2.32997 17.9008 1.53744 17.0359C0.7449 16.171 0.348633 15.1312 0.348633 13.9166V5.08329C0.348633 3.86871 0.7449 2.82895 1.53744 1.96402C2.32997 1.09909 3.2827 0.666626 4.39562 0.666626H16.5366C17.6495 0.666626 18.6022 1.09909 19.3948 1.96402C20.1873 2.82895 20.5836 3.86871 20.5836 5.08329V13.9166C20.5836 15.1312 20.1873 16.171 19.3948 17.0359C18.6022 17.9008 17.6495 18.3333 16.5366 18.3333H4.39562ZM4.39562 5.08329H16.5366C16.9076 5.08329 17.2617 5.1293 17.5989 5.22131C17.9362 5.31333 18.2566 5.46055 18.5601 5.66298V5.08329C18.5601 4.476 18.3621 3.95631 17.9662 3.52421C17.5696 3.09138 17.0931 2.87496 16.5366 2.87496H4.39562C3.83916 2.87496 3.36297 3.09138 2.96703 3.52421C2.57043 3.95631 2.37213 4.476 2.37213 5.08329V5.66298C2.67565 5.46055 2.99604 5.31333 3.33329 5.22131C3.67054 5.1293 4.02465 5.08329 4.39562 5.08329ZM2.52389 8.67183L13.7796 11.6531C13.9313 11.6899 14.0831 11.6899 14.2349 11.6531C14.3866 11.6163 14.53 11.5427 14.6649 11.4323L18.1807 8.23017C17.9952 7.95413 17.7591 7.72888 17.4725 7.55442C17.1858 7.37922 16.8738 7.29163 16.5366 7.29163H4.39562C3.9572 7.29163 3.57375 7.41566 3.24527 7.66373C2.91611 7.91254 2.67565 8.24857 2.52389 8.67183Z" fill="#4C0C6C"/>
</svg>
